# Blender v2.82 (sub 7) OBJ File: ''
# www.blender.org
mtllib untitled.mtl
o Circle
v -0.264639 0.000000 -1.689945
v -0.772278 0.000000 -1.714549
v -1.152632 0.000000 -1.393597
v -1.227531 0.000000 -0.529403
v -1.229852 0.000000 0.151219
v -1.153732 0.000000 0.533902
v -0.854262 0.000000 0.918796
v -0.529839 -0.029336 1.135569
v -0.139121 0.000000 1.247999
v 0.381369 0.000000 1.537116
v 1.146344 0.000000 1.741163
v 1.199113 0.000000 0.716574
v 1.028456 0.000000 0.121566
v 0.998317 0.017052 -0.373819
v 0.792765 0.000000 -0.839006
v 0.289922 0.000000 -1.119785
v -0.264791 0.069265 -1.689800
v -0.772429 0.069265 -1.714404
v -1.152784 0.069265 -1.393452
v -1.227682 0.069265 -0.529257
v -1.230004 0.069265 0.151364
v -1.153884 0.069265 0.534048
v -0.854414 0.069265 0.918942
v -0.529991 0.039929 1.135714
v -0.139273 0.069265 1.248144
v 0.381217 0.069265 1.537262
v 1.146192 0.069265 1.741309
v 1.198962 0.069265 0.716720
v 1.028304 0.069265 0.121712
v 0.998165 0.086317 -0.373673
v 0.792614 0.069265 -0.838860
v 0.289770 0.069265 -1.119640
v -0.257883 0.069234 -1.620675
v -0.745092 0.069234 -1.644289
v -1.140733 0.069234 -1.336254
v -1.182025 0.069234 -0.506836
v -1.096192 0.069234 0.146395
v -1.023135 0.069234 0.513678
v -0.823778 0.069234 0.883083
v -0.512410 0.041078 1.009729
v -0.137416 0.069234 1.199038
v 0.362128 0.069234 1.476520
v 1.047943 0.069234 1.672356
v 1.146965 0.069234 0.688999
v 0.983175 0.069234 0.117936
v 0.954249 0.085600 -0.357514
v 0.756969 0.069234 -0.803980
v 0.274362 0.069234 -1.073460
v -0.258009 0.126718 -1.620555
v -0.745218 0.126718 -1.644168
v -1.140859 0.126718 -1.336133
v -1.182151 0.126718 -0.506715
v -1.096318 0.126718 0.146516
v -1.023261 0.126718 0.513799
v -0.823904 0.126718 0.883204
v -0.512536 0.098562 1.009850
v -0.137542 0.126718 1.199159
v 0.362002 0.126718 1.476641
v 1.047817 0.126718 1.672477
v 1.146839 0.126718 0.689120
v 0.983049 0.126718 0.118057
v 0.954123 0.143084 -0.357393
v 0.756843 0.126718 -0.803859
v 0.274236 0.126718 -1.073339
v -0.708426 0.126676 -1.550958
v -0.248457 0.126676 -1.528664
v -1.081946 0.126676 -1.260145
v -1.150107 0.126676 -0.477102
v -1.039895 0.126676 0.139605
v -0.927625 0.126676 0.486353
v -0.782712 0.126676 0.835103
v -0.488753 0.100095 0.954668
v -0.134726 0.126676 1.133392
v 0.336887 0.126676 1.395360
v 0.984356 0.126676 1.642799
v 1.077842 0.126676 0.815157
v 0.923210 0.126676 0.112737
v 0.934414 0.142127 -0.336129
v 0.748165 0.126676 -0.757632
v 0.254028 0.126676 -1.012045
v -0.708504 0.161736 -1.550882
v -0.248536 0.161736 -1.528589
v -1.082024 0.161736 -1.260070
v -1.150185 0.161736 -0.477027
v -1.039973 0.161736 0.139681
v -0.927703 0.161736 0.486428
v -0.782790 0.161736 0.835178
v -0.488832 0.135155 0.954743
v -0.134805 0.161736 1.133467
v 0.336809 0.161736 1.395435
v 0.984278 0.161736 1.642875
v 1.077763 0.161736 0.815232
v 0.923131 0.161736 0.112813
v 0.934335 0.177187 -0.336054
v 0.748086 0.161736 -0.757557
v 0.253950 0.161736 -1.011970
v -0.688441 0.161716 -1.446810
v -0.243557 0.161716 -1.481908
v -1.052196 0.161716 -1.221395
v -1.089532 0.165550 -0.462672
v -1.011398 0.161716 0.136622
v -0.902476 0.161716 0.473032
v -0.753724 0.175296 0.803776
v -0.480464 0.125188 0.936033
v -0.133217 0.161716 1.129945
v 0.324335 0.161716 1.354937
v 0.592975 0.161716 1.373867
v 0.964885 0.161716 0.792033
v 0.908013 0.161716 0.110555
v 0.904047 0.176706 -0.324928
v 0.611882 0.161716 -0.733864
v 0.243947 0.161716 -0.980692
v -0.688540 0.206793 -1.446718
v -0.243657 0.206793 -1.481815
v -1.052295 0.206793 -1.221302
v -1.089632 0.210628 -0.462579
v -1.011498 0.206793 0.136715
v -0.902576 0.206793 0.473125
v -0.753823 0.220373 0.803869
v -0.480564 0.170265 0.936126
v -0.133317 0.206793 1.130038
v 0.324236 0.206793 1.355030
v 0.592875 0.206793 1.373960
v 0.964785 0.206793 0.792126
v 0.907913 0.206793 0.110648
v 0.903947 0.221783 -0.324835
v 0.611783 0.206793 -0.733772
v 0.243847 0.206793 -0.980599
v -0.678175 0.219767 -1.359588
v -0.336813 0.188577 -1.425180
v -1.024716 0.219767 -1.144839
v -1.036802 0.235157 -0.437726
v -0.964332 0.224917 0.135333
v -0.853172 0.236812 0.450884
v -0.709492 0.256336 0.763853
v -0.463166 0.171982 0.893188
v -0.132351 0.206781 1.077923
v 0.311366 0.229635 1.286867
v 0.567293 0.229635 1.304902
v 0.913787 0.206781 0.756002
v 0.859607 0.206781 0.106773
v 0.863440 0.214155 -0.304229
v 0.585101 0.199874 -0.693814
v 0.127621 0.188577 -0.947682
v -0.678235 0.259264 -1.359489
v -0.336874 0.228075 -1.425082
v -1.024777 0.259264 -1.144741
v -1.036863 0.274654 -0.437627
v -0.964392 0.264414 0.135432
v -0.853232 0.276309 0.450983
v -0.709553 0.295833 0.763952
v -0.463226 0.211479 0.893286
v -0.132412 0.246278 1.078022
v 0.311305 0.269132 1.286966
v 0.567232 0.269132 1.305000
v 0.913727 0.246278 0.756100
v 0.859546 0.246278 0.106871
v 0.863379 0.253652 -0.304131
v 0.585040 0.239372 -0.693716
v 0.127560 0.228075 -0.947584
vt 0.000000 0.000000
vt 0.000000 0.000000
vt 0.000000 0.000000
vt 0.000000 0.000000
vt 0.000000 0.000000
vt 0.000000 0.000000
vt 0.000000 0.000000
vt 0.000000 0.000000
vt 0.000000 0.000000
vt 0.000000 0.000000
vt 0.000000 0.000000
vt 0.000000 0.000000
vt 0.000000 0.000000
vt 0.000000 0.000000
vt 0.000000 0.000000
vt 0.000000 0.000000
vt 0.000000 0.000000
vt 0.000000 0.000000
vt 0.000000 0.000000
vt 0.000000 0.000000
vt 0.000000 0.000000
vt 0.000000 0.000000
vt 0.000000 0.000000
vt 0.000000 0.000000
vt 0.000000 0.000000
vt 0.000000 0.000000
vt 0.000000 0.000000
vt 0.000000 0.000000
vt 0.000000 0.000000
vt 0.000000 0.000000
vt 0.000000 0.000000
vt 0.000000 0.000000
vt 0.000000 0.000000
vt 0.000000 0.000000
vt 0.000000 0.000000
vt 0.000000 0.000000
vt 0.000000 0.000000
vt 0.000000 0.000000
vt 0.000000 0.000000
vt 0.000000 0.000000
vt 0.000000 0.000000
vt 0.000000 0.000000
vt 0.000000 0.000000
vt 0.000000 0.000000
vt 0.000000 0.000000
vt 0.000000 0.000000
vt 0.000000 0.000000
vt 0.000000 0.000000
vt 0.000000 0.000000
vt 0.000000 0.000000
vt 0.000000 0.000000
vt 0.000000 0.000000
vt 0.000000 0.000000
vt 0.000000 0.000000
vt 0.000000 0.000000
vt 0.000000 0.000000
vt 0.000000 0.000000
vt 0.000000 0.000000
vt 0.000000 0.000000
vt 0.000000 0.000000
vt 0.000000 0.000000
vt 0.000000 0.000000
vt 0.000000 0.000000
vt 0.000000 0.000000
vt 0.000000 0.000000
vt 0.000000 0.000000
vt 0.000000 0.000000
vt 0.000000 0.000000
vt 0.000000 0.000000
vt 0.000000 0.000000
vt 0.000000 0.000000
vt 0.000000 0.000000
vt 0.000000 0.000000
vt 0.000000 0.000000
vt 0.000000 0.000000
vt 0.000000 0.000000
vt 0.000000 0.000000
vt 0.000000 0.000000
vt 0.000000 0.000000
vt 0.000000 0.000000
vt 0.000000 0.000000
vt 0.000000 0.000000
vt 0.000000 0.000000
vt 0.000000 0.000000
vt 0.000000 0.000000
vt 0.000000 0.000000
vt 0.000000 0.000000
vt 0.000000 0.000000
vt 0.000000 0.000000
vt 0.000000 0.000000
vt 0.000000 0.000000
vt 0.000000 0.000000
vt 0.000000 0.000000
vt 0.000000 0.000000
vt 0.000000 0.000000
vt 0.000000 0.000000
vt 0.000000 0.000000
vt 0.000000 0.000000
vt 0.000000 0.000000
vt 0.000000 0.000000
vt 0.000000 0.000000
vt 0.000000 0.000000
vt 0.000000 0.000000
vt 0.000000 0.000000
vt 0.000000 0.000000
vt 0.000000 0.000000
vt 0.000000 0.000000
vt 0.000000 0.000000
vt 0.000000 0.000000
vt 0.000000 0.000000
vt 0.000000 0.000000
vt 0.000000 0.000000
vt 0.000000 0.000000
vt 0.000000 0.000000
vt 0.000000 0.000000
vt 0.000000 0.000000
vt 0.000000 0.000000
vt 0.000000 0.000000
vt 0.000000 0.000000
vt 0.000000 0.000000
vt 0.000000 0.000000
vt 0.000000 0.000000
vt 0.000000 0.000000
vt 0.000000 0.000000
vt 0.000000 0.000000
vt 0.000000 0.000000
vt 0.000000 0.000000
vt 0.000000 0.000000
vt 0.000000 0.000000
vt 0.000000 0.000000
vt 0.000000 0.000000
vt 0.000000 0.000000
vt 0.000000 0.000000
vt 0.000000 0.000000
vt 0.000000 0.000000
vt 0.000000 0.000000
vt 0.000000 0.000000
vt 0.000000 0.000000
vt 0.000000 0.000000
vt 0.000000 0.000000
vt 0.000000 0.000000
vt 0.000000 0.000000
vt 0.000000 0.000000
vt 0.000000 0.000000
vt 0.000000 0.000000
vt 0.000000 0.000000
vt 0.000000 0.000000
vt 0.000000 0.000000
vt 0.000000 0.000000
vt 0.000000 0.000000
vt 0.000000 0.000000
vt 0.000000 0.000000
vt 0.000000 0.000000
vt 0.000000 0.000000
vt 0.000000 0.000000
vt 0.000000 0.000000
vt 0.000000 0.000000
vt 0.000000 0.000000
vt 0.000000 0.000000
vt 0.000000 0.000000
vn 0.0022 -1.0000 -0.0021
vn 0.0002 1.0000 -0.0006
vn 0.9987 0.0021 0.0514
vn -1.0000 -0.0022 -0.0034
vn 0.9612 0.0027 -0.2757
vn -0.9808 -0.0026 0.1951
vn 0.9982 0.0023 -0.0606
vn -0.7892 -0.0030 0.6141
vn 0.9146 0.0029 -0.4043
vn -0.5558 -0.0030 0.8313
vn 0.4875 0.0029 -0.8731
vn -0.2763 -0.0026 0.9611
vn 0.0484 0.0022 -0.9988
vn 0.7168 0.0030 -0.6972
vn -0.4856 -0.0029 0.8742
vn -0.6449 0.0002 -0.7643
vn -0.2577 -0.0026 0.9662
vn -0.9963 -0.0020 -0.0863
vn 0.0010 1.0000 0.0001
vn -0.0004 1.0000 -0.0000
vn 0.0003 1.0000 -0.0000
vn -0.0007 1.0000 0.0002
vn 0.0002 1.0000 -0.0000
vn -0.0036 0.9994 0.0346
vn 0.0003 1.0000 -0.0002
vn -0.0256 0.9994 -0.0253
vn 0.0744 0.9968 0.0291
vn -0.0003 1.0000 0.0006
vn -0.0741 0.9972 -0.0019
vn -0.0000 1.0000 0.0004
vn -0.0005 1.0000 0.0005
vn 0.0003 1.0000 -0.0006
vn 0.0003 1.0000 0.0004
vn 0.0005 1.0000 -0.0001
vn -0.4505 -0.0029 0.8928
vn -0.6143 0.0003 -0.7890
vn -0.2746 -0.0026 0.9616
vn -0.9988 -0.0021 -0.0497
vn 0.9950 0.0020 0.1002
vn -0.9915 -0.0024 0.1303
vn -0.8800 -0.0029 0.4749
vn -0.3770 -0.0028 0.9262
vn -0.3570 -0.0028 0.9341
vn -0.0056 0.9994 0.0345
vn 0.0005 1.0000 -0.0002
vn -0.0595 0.9982 -0.0103
vn 0.0671 0.9961 0.0566
vn -0.0004 1.0000 0.0007
vn -0.0730 0.9973 -0.0037
vn -0.0000 1.0000 0.0005
vn 0.0003 1.0000 0.0003
vn 0.0003 1.0000 -0.0010
vn 0.0008 1.0000 0.0001
vn -0.0007 1.0000 -0.0001
vn 0.0010 1.0000 -0.0001
vn -0.0005 1.0000 0.0001
vn -0.0002 1.0000 0.0003
vn -0.9962 -0.0020 -0.0867
vn 0.9937 0.0020 0.1122
vn -0.9844 -0.0026 0.1759
vn 0.9766 0.0026 -0.2150
vn -0.9514 -0.0028 0.3080
vn 0.9997 0.0022 0.0250
vn -0.9234 -0.0029 0.3837
vn 0.4578 0.0029 -0.8891
vn 0.0484 0.0023 -0.9988
vn 0.7168 0.0031 -0.6972
vn -0.4856 -0.0030 0.8742
vn -0.9514 -0.0027 0.3080
vn 0.1110 0.9242 -0.3655
vn 0.0000 1.0000 0.0003
vn 0.0006 1.0000 -0.0011
vn 0.0002 1.0000 0.0002
vn 0.0001 1.0000 -0.0002
vn -0.0389 0.9992 -0.0051
vn -0.0001 1.0000 -0.0000
vn -0.0437 0.9990 0.0099
vn -0.0003 1.0000 0.0001
vn 0.0007 1.0000 -0.0002
vn -0.0043 0.9994 0.0344
vn -0.1919 0.9794 0.0634
vn -0.0095 0.9995 -0.0311
vn 0.0768 0.9888 0.1282
vn -0.0227 0.9466 0.3215
vn 1.0000 0.0022 -0.0090
vn -0.9120 -0.0029 0.4103
vn 0.8136 0.0030 -0.5814
vn -0.4361 -0.0028 0.8999
vn 0.5571 0.0029 -0.8304
vn -0.4873 -0.0029 0.8732
vn -0.0786 0.0019 -0.9969
vn -0.4413 -0.0028 0.8974
vn -0.5267 0.0006 -0.8500
vn -0.0703 -0.0022 0.9975
vn -0.9988 -0.0021 -0.0491
vn 0.8426 0.0008 0.5386
vn -0.9916 -0.0025 0.1293
vn 0.9965 0.0024 -0.0832
vn 0.4852 0.0029 -0.8744
vn -0.3961 0.9179 -0.0254
vn 0.1708 0.9813 0.0887
vn -0.4040 0.9126 0.0629
vn -0.0003 1.0000 0.0000
vn -0.4181 0.8998 0.1247
vn -0.0808 0.9964 0.0263
vn -0.4855 0.8562 0.1765
vn -0.1497 0.9862 0.0708
vn 0.0198 0.9047 0.4257
vn -0.1002 0.9846 0.1430
vn -0.1034 0.9946 -0.0021
vn 0.0477 0.9968 0.0638
vn -0.1211 0.9856 0.1178
vn -0.1193 0.9732 0.1965
vn -0.0848 0.9870 -0.1369
vn 0.0145 0.9999 -0.0082
vn -0.1885 0.0022 -0.9821
vn 0.7168 0.0028 -0.6972
vn -0.4259 -0.0029 0.9048
vn -0.5267 0.0013 -0.8500
vn -0.0703 -0.0026 0.9975
vn -0.9999 -0.0015 -0.0171
vn 0.8456 -0.0000 0.5338
vn -0.9921 -0.0018 0.1254
vn 0.9965 0.0017 -0.0832
vn -0.9432 -0.0023 0.3323
vn 1.0000 0.0015 0.0094
vn -0.9087 -0.0024 0.4173
vn 0.8136 0.0027 -0.5814
vn -0.4657 -0.0029 0.8850
usemtl None
s off
f 2/1/1 1/2/1 16/3/1 15/4/1 14/5/1 13/6/1 12/7/1 11/8/1 10/9/1 9/10/1 8/11/1 7/12/1 6/13/1 5/14/1 4/15/1 3/16/1
f 26/17/2 27/18/2 43/19/2 42/20/2
f 11/8/3 12/7/3 28/21/3 27/18/3
f 4/15/4 5/14/4 21/22/4 20/23/4
f 12/7/5 13/6/5 29/24/5 28/21/5
f 5/14/6 6/13/6 22/25/6 21/22/6
f 13/6/7 14/5/7 30/26/7 29/24/7
f 6/13/8 7/12/8 23/27/8 22/25/8
f 14/5/9 15/4/9 31/28/9 30/26/9
f 7/12/10 8/11/10 24/29/10 23/27/10
f 15/4/11 16/3/11 32/30/11 31/28/11
f 8/11/12 9/10/12 25/31/12 24/29/12
f 1/2/13 2/1/13 18/32/13 17/33/13
f 16/3/14 1/2/14 17/33/14 32/30/14
f 9/10/15 10/9/15 26/17/15 25/31/15
f 2/1/16 3/16/16 19/34/16 18/32/16
f 10/9/17 11/8/17 27/18/17 26/17/17
f 3/16/18 4/15/18 20/23/18 19/34/18
f 47/35/11 48/36/11 64/37/11 63/38/11
f 19/34/19 20/23/19 36/39/19 35/40/19
f 27/18/20 28/21/20 44/41/20 43/19/20
f 20/23/21 21/22/21 37/42/21 36/39/21
f 28/21/22 29/24/22 45/43/22 44/41/22
f 21/22/23 22/25/23 38/44/23 37/42/23
f 29/24/24 30/26/24 46/45/24 45/43/24
f 22/25/25 23/27/25 39/46/25 38/44/25
f 30/26/26 31/28/26 47/35/26 46/45/26
f 23/27/27 24/29/27 40/47/27 39/46/27
f 31/28/28 32/30/28 48/36/28 47/35/28
f 24/29/29 25/31/29 41/48/29 40/47/29
f 17/33/30 18/32/30 34/49/30 33/50/30
f 32/30/31 17/33/31 33/50/31 48/36/31
f 25/31/32 26/17/32 42/20/32 41/48/32
f 18/32/33 19/34/33 35/40/33 34/49/33
f 53/51/34 54/52/34 70/53/34 69/54/34
f 40/47/35 41/48/35 57/55/35 56/56/35
f 33/50/13 34/49/13 50/57/13 49/58/13
f 48/36/14 33/50/14 49/58/14 64/37/14
f 41/48/15 42/20/15 58/59/15 57/55/15
f 34/49/36 35/40/36 51/60/36 50/57/36
f 42/20/37 43/19/37 59/61/37 58/59/37
f 35/40/38 36/39/38 52/62/38 51/60/38
f 43/19/39 44/41/39 60/63/39 59/61/39
f 36/39/40 37/42/40 53/51/40 52/62/40
f 44/41/5 45/43/5 61/64/5 60/63/5
f 37/42/6 38/44/6 54/52/6 53/51/6
f 45/43/7 46/45/7 62/65/7 61/64/7
f 38/44/41 39/46/41 55/66/41 54/52/41
f 46/45/9 47/35/9 63/38/9 62/65/9
f 39/46/42 40/47/42 56/56/42 55/66/42
f 74/67/43 75/68/43 91/69/43 90/70/43
f 61/64/44 62/65/44 78/71/44 77/72/44
f 54/52/45 55/66/45 71/73/45 70/53/45
f 62/65/46 63/38/46 79/74/46 78/71/46
f 55/66/47 56/56/47 72/75/47 71/73/47
f 63/38/48 64/37/48 80/76/48 79/74/48
f 56/56/49 57/55/49 73/77/49 72/75/49
f 49/58/50 50/57/50 65/78/50 66/79/50
f 64/37/31 49/58/31 66/79/31 80/76/31
f 57/55/32 58/59/32 74/67/32 73/77/32
f 50/57/51 51/60/51 67/80/51 65/78/51
f 58/59/52 59/61/52 75/68/52 74/67/52
f 51/60/53 52/62/53 68/81/53 67/80/53
f 59/61/54 60/63/54 76/82/54 75/68/54
f 52/62/55 53/51/55 69/54/55 68/81/55
f 60/63/56 61/64/56 77/72/56 76/82/56
f 95/83/57 96/84/57 112/85/57 111/86/57
f 67/80/58 68/81/58 84/87/58 83/88/58
f 75/68/59 76/82/59 92/89/59 91/69/59
f 68/81/60 69/54/60 85/90/60 84/87/60
f 76/82/61 77/72/61 93/91/61 92/89/61
f 69/54/62 70/53/62 86/92/62 85/90/62
f 77/72/63 78/71/63 94/93/63 93/91/63
f 70/53/64 71/73/64 87/94/64 86/92/64
f 78/71/9 79/74/9 95/83/9 94/93/9
f 71/73/42 72/75/42 88/95/42 87/94/42
f 79/74/65 80/76/65 96/84/65 95/83/65
f 72/75/35 73/77/35 89/96/35 88/95/35
f 66/79/66 65/78/66 81/97/66 82/98/66
f 80/76/67 66/79/67 82/98/67 96/84/67
f 73/77/68 74/67/68 90/70/68 89/96/68
f 65/78/36 67/80/36 83/88/36 81/97/36
f 101/99/69 102/100/69 118/101/69 117/102/69
f 88/95/70 89/96/70 105/103/70 104/104/70
f 82/98/71 81/97/71 97/105/71 98/106/71
f 96/84/31 82/98/31 98/106/31 112/85/31
f 89/96/72 90/70/72 106/107/72 105/103/72
f 81/97/73 83/88/73 99/108/73 97/105/73
f 90/70/74 91/69/74 107/109/74 106/107/74
f 83/88/75 84/87/75 100/110/75 99/108/75
f 91/69/76 92/89/76 108/111/76 107/109/76
f 84/87/77 85/90/77 101/99/77 100/110/77
f 92/89/78 93/91/78 109/112/78 108/111/78
f 85/90/79 86/92/79 102/100/79 101/99/79
f 93/91/80 94/93/80 110/113/80 109/112/80
f 86/92/81 87/94/81 103/114/81 102/100/81
f 94/93/82 95/83/82 111/86/82 110/113/82
f 87/94/83 88/95/83 104/104/83 103/114/83
f 122/115/84 123/116/84 139/117/84 138/118/84
f 109/112/85 110/113/85 126/119/85 125/120/85
f 102/100/86 103/114/86 119/121/86 118/101/86
f 110/113/87 111/86/87 127/122/87 126/119/87
f 103/114/88 104/104/88 120/123/88 119/121/88
f 111/86/89 112/85/89 128/124/89 127/122/89
f 104/104/90 105/103/90 121/125/90 120/123/90
f 98/106/91 97/105/91 113/126/91 114/127/91
f 112/85/14 98/106/14 114/127/14 128/124/14
f 105/103/92 106/107/92 122/115/92 121/125/92
f 97/105/93 99/108/93 115/128/93 113/126/93
f 106/107/94 107/109/94 123/116/94 122/115/94
f 99/108/95 100/110/95 116/129/95 115/128/95
f 107/109/96 108/111/96 124/130/96 123/116/96
f 100/110/97 101/99/97 117/102/97 116/129/97
f 108/111/98 109/112/98 125/120/98 124/130/98
f 143/131/99 144/132/99 160/133/99 159/134/99
f 115/128/100 116/129/100 132/135/100 131/136/100
f 123/116/101 124/130/101 140/137/101 139/117/101
f 116/129/102 117/102/102 133/138/102 132/135/102
f 124/130/103 125/120/103 141/139/103 140/137/103
f 117/102/104 118/101/104 134/140/104 133/138/104
f 125/120/105 126/119/105 142/141/105 141/139/105
f 118/101/106 119/121/106 135/142/106 134/140/106
f 126/119/107 127/122/107 143/131/107 142/141/107
f 119/121/108 120/123/108 136/143/108 135/142/108
f 127/122/109 128/124/109 144/132/109 143/131/109
f 120/123/110 121/125/110 137/144/110 136/143/110
f 114/127/111 113/126/111 129/145/111 130/146/111
f 128/124/112 114/127/112 130/146/112 144/132/112
f 121/125/113 122/115/113 138/118/113 137/144/113
f 113/126/114 115/128/114 131/136/114 129/145/114
f 145/147/115 147/148/115 148/149/115 149/150/115 150/151/115 151/152/115 152/153/115 153/154/115 154/155/115 155/156/115 156/157/115 157/158/115 158/159/115 159/134/115 160/133/115 146/160/115
f 136/143/90 137/144/90 153/154/90 152/153/90
f 130/146/116 129/145/116 145/147/116 146/160/116
f 144/132/117 130/146/117 146/160/117 160/133/117
f 137/144/118 138/118/118 154/155/118 153/154/118
f 129/145/119 131/136/119 147/148/119 145/147/119
f 138/118/120 139/117/120 155/156/120 154/155/120
f 131/136/121 132/135/121 148/149/121 147/148/121
f 139/117/122 140/137/122 156/157/122 155/156/122
f 132/135/123 133/138/123 149/150/123 148/149/123
f 140/137/124 141/139/124 157/158/124 156/157/124
f 133/138/125 134/140/125 150/151/125 149/150/125
f 141/139/126 142/141/126 158/159/126 157/158/126
f 134/140/127 135/142/127 151/152/127 150/151/127
f 142/141/128 143/131/128 159/134/128 158/159/128
f 135/142/129 136/143/129 152/153/129 151/152/129
