# Blender v2.82 (sub 7) OBJ File: ''
# www.blender.org
mtllib umbrella.mtl
o Cylinder
v 0.000000 -1.479141 -0.300000
v 0.000000 3.983594 -0.236584
v 0.058527 -1.479141 -0.294236
v 0.058527 3.980050 -0.232038
v 0.114805 -1.479141 -0.277164
v 0.114805 3.969553 -0.218575
v 0.166671 -1.479141 -0.249441
v 0.166671 3.952506 -0.196712
v 0.212132 -1.479141 -0.212132
v 0.212132 3.929565 -0.167290
v 0.249441 -1.479141 -0.166671
v 0.249441 3.901612 -0.131439
v 0.277164 -1.479141 -0.114805
v 0.277164 3.869720 -0.090537
v 0.294236 -1.479141 -0.058527
v 0.294236 3.835115 -0.046155
v 0.300000 -1.479141 -0.000000
v 0.300000 3.799128 0.000000
v 0.294236 -1.479141 0.058527
v 0.294236 3.763140 0.046155
v 0.277164 -1.479141 0.114805
v 0.277164 3.728535 0.090537
v 0.249441 -1.479141 0.166671
v 0.249441 3.696644 0.131439
v 0.212132 -1.479141 0.212132
v 0.212132 3.668690 0.167290
v 0.166671 -1.479141 0.249441
v 0.166671 3.645749 0.196713
v 0.114805 -1.479141 0.277164
v 0.114805 3.628703 0.218575
v 0.058527 -1.479141 0.294236
v 0.058527 3.618206 0.232038
v -0.000000 -1.479141 0.300000
v -0.000000 3.614661 0.236584
v -0.058527 -1.479141 0.294236
v -0.058527 3.618206 0.232038
v -0.114805 -1.479141 0.277164
v -0.114805 3.628703 0.218575
v -0.166671 -1.479141 0.249441
v -0.166671 3.645749 0.196712
v -0.212132 -1.479141 0.212132
v -0.212132 3.668690 0.167290
v -0.249441 -1.479141 0.166671
v -0.249441 3.696644 0.131439
v -0.277164 -1.479141 0.114805
v -0.277164 3.728536 0.090537
v -0.294236 -1.479141 0.058527
v -0.294236 3.763140 0.046155
v -0.300000 -1.479141 -0.000000
v -0.300000 3.799128 -0.000000
v -0.294236 -1.479141 -0.058527
v -0.294236 3.835115 -0.046155
v -0.277164 -1.479141 -0.114805
v -0.277164 3.869720 -0.090537
v -0.249441 -1.479141 -0.166671
v -0.249441 3.901612 -0.131439
v -0.212132 -1.479141 -0.212132
v -0.212132 3.929565 -0.167290
v -0.166671 -1.479141 -0.249441
v -0.166671 3.952506 -0.196713
v -0.114805 -1.479141 -0.277164
v -0.114805 3.969553 -0.218575
v -0.058527 -1.479141 -0.294236
v -0.058527 3.980050 -0.232038
v 0.058526 6.974814 2.103007
v -0.000001 6.978359 2.098461
v 0.114804 6.964317 2.116470
v 0.166670 6.947270 2.138332
v 0.212131 6.924330 2.167755
v 0.249440 6.896377 2.203606
v 0.277163 6.864485 2.244508
v 0.294234 6.829880 2.288890
v 0.299999 6.793892 2.335045
v 0.294234 6.757905 2.381200
v 0.277163 6.723300 2.425582
v 0.249440 6.691408 2.466484
v 0.212131 6.663455 2.502335
v 0.166670 6.640514 2.531757
v 0.114804 6.623467 2.553620
v 0.058526 6.612970 2.567083
v -0.000001 6.609426 2.571629
v -0.058528 6.612970 2.567083
v -0.114806 6.623467 2.553620
v -0.166672 6.640514 2.531757
v -0.212133 6.663455 2.502335
v -0.249442 6.691408 2.466484
v -0.277165 6.723300 2.425581
v -0.294237 6.757905 2.381200
v -0.300001 6.793892 2.335045
v -0.294237 6.829880 2.288889
v -0.277165 6.864485 2.244508
v -0.249442 6.896377 2.203605
v -0.212133 6.924330 2.167754
v -0.166672 6.947270 2.138332
v -0.114806 6.964317 2.116469
v -0.058528 6.974814 2.103007
v 3.248711 7.113171 1.178059
v 2.926218 7.405513 0.650276
v 2.492217 7.661753 0.187669
v 1.963385 7.872043 -0.191982
v 1.360046 8.028303 -0.474089
v 0.705382 8.124527 -0.647808
v 0.024556 8.157019 -0.706467
v 3.447300 6.795962 1.750738
v 3.514355 6.466075 2.346304
v 3.447300 6.136189 2.941869
v 3.248711 5.818980 3.514549
v 2.926218 5.526639 4.042333
v 2.492217 5.270399 4.504939
v 1.963385 5.060108 4.884590
v 1.360044 4.903848 5.166697
v 0.705382 4.807623 5.340417
v 0.024556 4.775133 5.399075
v -0.656270 4.807624 5.340416
v -1.310933 4.903849 5.166696
v -1.914274 5.060109 4.884590
v -2.443105 5.270400 4.504938
v -2.877106 5.526639 4.042331
v -3.199598 5.818982 3.514547
v 0.024556 6.953169 2.616107
v -3.398187 6.136190 2.941867
v -3.465242 6.466077 2.346301
v -3.398186 6.795964 1.750735
v -3.199596 7.113173 1.178056
v -2.877103 7.405515 0.650272
v -2.443100 7.661755 0.187666
v -1.914268 7.872044 -0.191985
v -1.310927 8.028304 -0.474091
v -0.656264 8.124528 -0.647810
v 3.456013 6.179056 2.864478
v -0.629854 4.806364 5.342693
v -3.403476 6.769935 1.797727
v 0.474815 8.135530 -0.667674
v -0.073490 6.646484 2.406093
vt 1.000000 0.500000
vt 1.000000 1.000000
vt 0.968750 1.000000
vt 0.968750 0.500000
vt 0.937500 1.000000
vt 0.937500 0.500000
vt 0.906250 1.000000
vt 0.906250 0.500000
vt 0.875000 1.000000
vt 0.875000 0.500000
vt 0.843750 1.000000
vt 0.843750 0.500000
vt 0.812500 1.000000
vt 0.812500 0.500000
vt 0.781250 1.000000
vt 0.781250 0.500000
vt 0.750000 1.000000
vt 0.750000 0.500000
vt 0.718750 1.000000
vt 0.718750 0.500000
vt 0.687500 1.000000
vt 0.687500 0.500000
vt 0.656250 1.000000
vt 0.656250 0.500000
vt 0.625000 1.000000
vt 0.625000 0.500000
vt 0.593750 1.000000
vt 0.593750 0.500000
vt 0.562500 1.000000
vt 0.562500 0.500000
vt 0.531250 1.000000
vt 0.531250 0.500000
vt 0.500000 1.000000
vt 0.500000 0.500000
vt 0.468750 1.000000
vt 0.468750 0.500000
vt 0.437500 1.000000
vt 0.437500 0.500000
vt 0.406250 1.000000
vt 0.406250 0.500000
vt 0.375000 1.000000
vt 0.375000 0.500000
vt 0.343750 1.000000
vt 0.343750 0.500000
vt 0.312500 1.000000
vt 0.312500 0.500000
vt 0.281250 1.000000
vt 0.281250 0.500000
vt 0.250000 1.000000
vt 0.250000 0.500000
vt 0.218750 1.000000
vt 0.218750 0.500000
vt 0.187500 1.000000
vt 0.187500 0.500000
vt 0.156250 1.000000
vt 0.156250 0.500000
vt 0.125000 1.000000
vt 0.125000 0.500000
vt 0.093750 1.000000
vt 0.093750 0.500000
vt 0.062500 1.000000
vt 0.062500 0.500000
vt 0.718750 1.000000
vt 0.687500 1.000000
vt 0.031250 1.000000
vt 0.031250 0.500000
vt 0.000000 1.000000
vt 0.000000 0.500000
vt 0.750000 0.490000
vt 0.796822 0.485388
vt 0.841844 0.471731
vt 0.883337 0.449553
vt 0.919706 0.419706
vt 0.949553 0.383337
vt 0.971731 0.341844
vt 0.985388 0.296822
vt 0.990000 0.250000
vt 0.985388 0.203178
vt 0.971731 0.158156
vt 0.949553 0.116663
vt 0.919706 0.080294
vt 0.883337 0.050447
vt 0.841844 0.028269
vt 0.796822 0.014612
vt 0.750000 0.010000
vt 0.703178 0.014612
vt 0.658156 0.028269
vt 0.616663 0.050447
vt 0.580294 0.080294
vt 0.550447 0.116663
vt 0.528269 0.158156
vt 0.514611 0.203179
vt 0.510000 0.250000
vt 0.514612 0.296822
vt 0.528269 0.341844
vt 0.550447 0.383337
vt 0.580295 0.419706
vt 0.616663 0.449553
vt 0.658156 0.471731
vt 0.703179 0.485389
vt 0.296822 0.485388
vt 0.250000 0.490000
vt 0.203179 0.485389
vt 0.158156 0.471731
vt 0.116663 0.449553
vt 0.080295 0.419706
vt 0.050447 0.383337
vt 0.028269 0.341844
vt 0.014612 0.296822
vt 0.010000 0.250000
vt 0.014611 0.203179
vt 0.028269 0.158156
vt 0.050447 0.116663
vt 0.080294 0.080294
vt 0.116663 0.050447
vt 0.158156 0.028269
vt 0.203178 0.014612
vt 0.250000 0.010000
vt 0.296822 0.014612
vt 0.341844 0.028269
vt 0.383337 0.050447
vt 0.419706 0.080294
vt 0.449553 0.116663
vt 0.471731 0.158156
vt 0.485388 0.203178
vt 0.490000 0.250000
vt 0.485388 0.296822
vt 0.471731 0.341844
vt 0.449553 0.383337
vt 0.419706 0.419706
vt 0.383337 0.449553
vt 0.341844 0.471731
vt 0.437500 1.000000
vt 0.406250 1.000000
vt 0.156250 1.000000
vt 0.125000 1.000000
vt 0.843750 1.000000
vt 0.812500 1.000000
vt 0.562500 1.000000
vt 0.531250 1.000000
vt 0.281250 1.000000
vt 0.250000 1.000000
vt 0.968750 1.000000
vt 0.937500 1.000000
vt 0.656250 1.000000
vt 0.375000 1.000000
vt 0.093750 1.000000
vt 0.781250 1.000000
vt 0.500000 1.000000
vt 0.218750 1.000000
vt 0.906250 1.000000
vt 0.625000 1.000000
vt 0.343750 1.000000
vt 0.062500 1.000000
vt 0.750000 1.000000
vt 0.468750 1.000000
vt 0.187500 1.000000
vt 0.875000 1.000000
vt 0.593750 1.000000
vt 0.312500 1.000000
vt 0.031250 1.000000
vt 1.000000 1.000000
vt 0.000000 1.000000
vt 0.250000 0.490000
vt 0.250000 0.250000
vt 0.296822 0.485388
vt 0.280965 0.486950
vt 0.341844 0.471731
vt 0.383337 0.449553
vt 0.419706 0.419706
vt 0.449553 0.383337
vt 0.471731 0.341844
vt 0.485388 0.296822
vt 0.490000 0.250000
vt 0.485388 0.203178
vt 0.485988 0.209263
vt 0.471731 0.158156
vt 0.449553 0.116663
vt 0.419706 0.080294
vt 0.383337 0.050447
vt 0.341844 0.028269
vt 0.296822 0.014612
vt 0.250000 0.010000
vt 0.203178 0.014612
vt 0.204995 0.014433
vt 0.158156 0.028269
vt 0.116663 0.050447
vt 0.080294 0.080294
vt 0.050447 0.116663
vt 0.028269 0.158156
vt 0.014612 0.203179
vt 0.010000 0.250000
vt 0.014612 0.296822
vt 0.014248 0.293128
vt 0.028269 0.341844
vt 0.050447 0.383337
vt 0.080295 0.419706
vt 0.116663 0.449553
vt 0.158156 0.471731
vt 0.203179 0.485389
vt 0.750000 0.490000
vt 0.780965 0.486950
vt 0.743257 0.252414
vt 0.514248 0.293128
vt 0.514612 0.296822
vt 0.528269 0.341844
vt 0.550447 0.383337
vt 0.580295 0.419706
vt 0.616663 0.449553
vt 0.658156 0.471731
vt 0.703179 0.485389
vt 0.704995 0.014433
vt 0.703178 0.014612
vt 0.658156 0.028269
vt 0.616663 0.050447
vt 0.580294 0.080294
vt 0.550447 0.116663
vt 0.528269 0.158156
vt 0.514611 0.203179
vt 0.510000 0.250000
vt 0.985988 0.209263
vt 0.985388 0.203178
vt 0.971731 0.158156
vt 0.949553 0.116663
vt 0.919706 0.080294
vt 0.883337 0.050447
vt 0.841844 0.028269
vt 0.796822 0.014612
vt 0.750000 0.010000
vt 0.796822 0.485388
vt 0.841844 0.471731
vt 0.883337 0.449553
vt 0.919706 0.419706
vt 0.949553 0.383337
vt 0.971731 0.341844
vt 0.985388 0.296822
vt 0.990000 0.250000
vn 0.0881 0.0115 -0.9960
vn 0.2627 0.0107 -0.9648
vn 0.4325 0.0092 -0.9016
vn 0.5929 0.0072 -0.8053
vn 0.7376 0.0050 -0.6752
vn 0.8588 0.0028 -0.5123
vn 0.9471 0.0011 -0.3209
vn 0.9940 0.0001 -0.1094
vn 0.9940 0.0001 0.1095
vn 0.9469 0.0011 0.3216
vn 0.8579 0.0029 0.5138
vn 0.7359 0.0053 0.6771
vn 0.5904 0.0077 0.8071
vn 0.4299 0.0098 0.9028
vn 0.2608 0.0114 0.9653
vn 0.0874 0.0123 0.9961
vn -0.0874 0.0123 0.9961
vn -0.2608 0.0114 0.9653
vn -0.4299 0.0098 0.9028
vn -0.5904 0.0077 0.8071
vn -0.7359 0.0053 0.6771
vn -0.8579 0.0029 0.5138
vn -0.9469 0.0011 0.3216
vn -0.9940 0.0001 0.1095
vn -0.9940 0.0001 -0.1094
vn -0.9471 0.0011 -0.3209
vn -0.8588 0.0028 -0.5123
vn -0.7376 0.0050 -0.6752
vn -0.5929 0.0072 -0.8053
vn -0.4325 0.0092 -0.9016
vn 0.9569 -0.1785 0.2289
vn -0.2627 0.0107 -0.9648
vn -0.0881 0.0115 -0.9960
vn 0.0000 -1.0000 -0.0000
vn 0.0000 0.7886 0.6149
vn -0.4714 -0.5423 0.6955
vn -0.7730 0.3901 -0.5003
vn 0.8819 0.2899 -0.3717
vn 0.2903 -0.5884 0.7547
vn -0.9952 -0.0603 0.0773
vn 0.2903 0.5884 -0.7547
vn 0.8819 -0.2899 0.3717
vn -0.6344 -0.4753 0.6096
vn -0.6344 0.4753 -0.6096
vn 0.9569 0.1785 -0.2289
vn 0.0980 -0.6119 0.7848
vn -0.9952 0.0603 -0.0773
vn 0.4714 0.5423 -0.6955
vn 0.7730 -0.3901 0.5003
vn -0.7730 -0.3901 0.5003
vn -0.4714 0.5423 -0.6955
vn 0.9952 0.0603 -0.0773
vn -0.0980 -0.6119 0.7848
vn -0.9569 0.1785 -0.2289
vn 0.6344 0.4753 -0.6096
vn 0.6344 -0.4753 0.6096
vn -0.8819 -0.2899 0.3717
vn -0.2903 0.5884 -0.7547
vn 0.9952 -0.0603 0.0773
vn -0.2903 -0.5884 0.7547
vn -0.8819 0.2899 -0.3718
vn 0.7730 0.3901 -0.5003
vn 0.4714 -0.5423 0.6955
vn -0.9569 -0.1785 0.2289
vn 0.0980 0.6119 -0.7848
vn -0.0980 0.6119 -0.7848
vn 0.0155 0.9401 0.3406
vn 0.0460 0.9371 0.3459
vn 0.0746 0.9314 0.3563
vn 0.1004 0.9230 0.3714
vn 0.1224 0.9124 0.3906
vn 0.1396 0.8999 0.4132
vn 0.1515 0.8860 0.4382
vn 0.1575 0.8713 0.4649
vn 0.1575 0.8562 0.4920
vn 0.1515 0.8415 0.5186
vn 0.1396 0.8276 0.5437
vn 0.1224 0.8151 0.5663
vn 0.1004 0.8044 0.5855
vn 0.0746 0.7961 0.6006
vn 0.0460 0.7903 0.6109
vn 0.0155 0.7874 0.6162
vn -0.0155 0.7874 0.6162
vn -0.0460 0.7903 0.6109
vn -0.0746 0.7961 0.6006
vn -0.1004 0.8044 0.5855
vn -0.1224 0.8151 0.5663
vn -0.1396 0.8276 0.5437
vn -0.1515 0.8415 0.5186
vn -0.1575 0.8562 0.4920
vn -0.1575 0.8713 0.4649
vn -0.1515 0.8860 0.4382
vn -0.1396 0.8999 0.4131
vn -0.1224 0.9124 0.3906
vn -0.1004 0.9230 0.3714
vn -0.0746 0.9314 0.3563
vn -0.0460 0.9371 0.3459
vn -0.0155 0.9401 0.3406
vn 0.0292 -0.8932 -0.4487
vn 0.0406 -0.8602 -0.5083
vn -0.0269 -0.8550 -0.5179
vn -0.0381 -0.8874 -0.4594
usemtl None
s off
f 1/1/1 2/2/1 4/3/1 3/4/1
f 3/4/2 4/3/2 6/5/2 5/6/2
f 5/6/3 6/5/3 8/7/3 7/8/3
f 7/8/4 8/7/4 10/9/4 9/10/4
f 9/10/5 10/9/5 12/11/5 11/12/5
f 11/12/6 12/11/6 14/13/6 13/14/6
f 13/14/7 14/13/7 16/15/7 15/16/7
f 15/16/8 16/15/8 18/17/8 17/18/8
f 17/18/9 18/17/9 20/19/9 19/20/9
f 19/20/10 20/19/10 22/21/10 21/22/10
f 21/22/11 22/21/11 24/23/11 23/24/11
f 23/24/12 24/23/12 26/25/12 25/26/12
f 25/26/13 26/25/13 28/27/13 27/28/13
f 27/28/14 28/27/14 30/29/14 29/30/14
f 29/30/15 30/29/15 32/31/15 31/32/15
f 31/32/16 32/31/16 34/33/16 33/34/16
f 33/34/17 34/33/17 36/35/17 35/36/17
f 35/36/18 36/35/18 38/37/18 37/38/18
f 37/38/19 38/37/19 40/39/19 39/40/19
f 39/40/20 40/39/20 42/41/20 41/42/20
f 41/42/21 42/41/21 44/43/21 43/44/21
f 43/44/22 44/43/22 46/45/22 45/46/22
f 45/46/23 46/45/23 48/47/23 47/48/23
f 47/48/24 48/47/24 50/49/24 49/50/24
f 49/50/25 50/49/25 52/51/25 51/52/25
f 51/52/26 52/51/26 54/53/26 53/54/26
f 53/54/27 54/53/27 56/55/27 55/56/27
f 55/56/28 56/55/28 58/57/28 57/58/28
f 57/58/29 58/57/29 60/59/29 59/60/29
f 59/60/30 60/59/30 62/61/30 61/62/30
f 22/21/31 20/19/31 74/63/31 75/64/31
f 61/62/32 62/61/32 64/65/32 63/66/32
f 63/66/33 64/65/33 2/67/33 1/68/33
f 1/69/34 3/70/34 5/71/34 7/72/34 9/73/34 11/74/34 13/75/34 15/76/34 17/77/34 19/78/34 21/79/34 23/80/34 25/81/34 27/82/34 29/83/34 31/84/34 33/85/34 35/86/34 37/87/34 39/88/34 41/89/34 43/90/34 45/91/34 47/92/34 49/93/34 51/94/34 53/95/34 55/96/34 57/97/34 59/98/34 61/99/34 63/100/34
f 65/101/35 66/102/35 96/103/35 95/104/35 94/105/35 93/106/35 92/107/35 91/108/35 90/109/35 89/110/35 88/111/35 87/112/35 86/113/35 85/114/35 84/115/35 83/116/35 82/117/35 81/118/35 80/119/35 79/120/35 78/121/35 77/122/35 76/123/35 75/124/35 74/125/35 73/126/35 72/127/35 71/128/35 70/129/35 69/130/35 68/131/35 67/132/35
f 40/39/36 38/37/36 83/133/36 84/134/36
f 58/57/37 56/55/37 92/135/37 93/136/37
f 14/13/38 12/11/38 70/137/38 71/138/38
f 32/31/39 30/29/39 79/139/39 80/140/39
f 50/49/40 48/47/40 88/141/40 89/142/40
f 6/5/41 4/3/41 65/143/41 67/144/41
f 24/23/42 22/21/42 75/64/42 76/145/42
f 42/41/43 40/39/43 84/134/43 85/146/43
f 60/59/44 58/57/44 93/136/44 94/147/44
f 16/15/45 14/13/45 71/138/45 72/148/45
f 34/33/46 32/31/46 80/140/46 81/149/46
f 52/51/47 50/49/47 89/142/47 90/150/47
f 8/7/48 6/5/48 67/144/48 68/151/48
f 26/25/49 24/23/49 76/145/49 77/152/49
f 44/43/50 42/41/50 85/146/50 86/153/50
f 62/61/51 60/59/51 94/147/51 95/154/51
f 18/17/52 16/15/52 72/148/52 73/155/52
f 36/35/53 34/33/53 81/149/53 82/156/53
f 54/53/54 52/51/54 90/150/54 91/157/54
f 10/9/55 8/7/55 68/151/55 69/158/55
f 28/27/56 26/25/56 77/152/56 78/159/56
f 46/45/57 44/43/57 86/153/57 87/160/57
f 64/65/58 62/61/58 95/154/58 96/161/58
f 20/19/59 18/17/59 73/155/59 74/63/59
f 38/37/60 36/35/60 82/156/60 83/133/60
f 56/55/61 54/53/61 91/157/61 92/135/61
f 12/11/62 10/9/62 69/158/62 70/137/62
f 30/29/63 28/27/63 78/159/63 79/139/63
f 48/47/64 46/45/64 87/160/64 88/141/64
f 4/3/65 2/2/65 66/162/65 65/143/65
f 2/67/66 64/65/66 96/161/66 66/163/66
f 103/164/67 120/165/67 102/166/67 133/167/67
f 102/166/68 120/165/68 101/168/68
f 101/168/69 120/165/69 100/169/69
f 100/169/70 120/165/70 99/170/70
f 99/170/71 120/165/71 98/171/71
f 98/171/72 120/165/72 97/172/72
f 97/172/73 120/165/73 104/173/73
f 104/173/74 120/165/74 105/174/74
f 105/174/75 120/165/75 106/175/75 130/176/75
f 106/175/76 120/165/76 107/177/76
f 107/177/77 120/165/77 108/178/77
f 108/178/78 120/165/78 109/179/78
f 109/179/79 120/165/79 110/180/79
f 110/180/80 120/165/80 111/181/80
f 111/181/81 120/165/81 112/182/81
f 112/182/82 120/165/82 113/183/82
f 113/183/83 120/165/83 114/184/83 131/185/83
f 114/184/84 120/165/84 115/186/84
f 115/186/85 120/165/85 116/187/85
f 116/187/86 120/165/86 117/188/86
f 117/188/87 120/165/87 118/189/87
f 118/189/88 120/165/88 119/190/88
f 119/190/89 120/165/89 121/191/89
f 121/191/90 120/165/90 122/192/90
f 122/192/91 120/165/91 123/193/91 132/194/91
f 123/193/92 120/165/92 124/195/92
f 124/195/93 120/165/93 125/196/93
f 125/196/94 120/165/94 126/197/94
f 126/197/95 120/165/95 127/198/95
f 127/198/96 120/165/96 128/199/96
f 128/199/97 120/165/97 129/200/97
f 129/200/98 120/165/98 103/164/98
f 103/201/99 133/202/99 134/203/99 132/204/99 123/205/99 124/206/99 125/207/99 126/208/99 127/209/99 128/210/99 129/211/99
f 132/204/100 134/203/100 131/212/100 114/213/100 115/214/100 116/215/100 117/216/100 118/217/100 119/218/100 121/219/100 122/220/100
f 131/212/101 134/203/101 130/221/101 106/222/101 107/223/101 108/224/101 109/225/101 110/226/101 111/227/101 112/228/101 113/229/101
f 130/221/102 134/203/102 133/202/102 102/230/102 101/231/102 100/232/102 99/233/102 98/234/102 97/235/102 104/236/102 105/237/102
