# Blender v2.82 (sub 7) OBJ File: ''
# www.blender.org
mtllib 13.mtl
o Icosphere_Icosphere.002
v 0.022368 -1.174286 -0.177152
v 0.935115 -0.477017 0.485990
v -0.159451 -0.455384 1.053435
v -0.857275 -0.468770 0.117320
v -0.276388 -0.447220 -0.850649
v 0.723607 -0.447220 -0.525725
v 0.537812 0.672849 1.053435
v -0.591361 0.464370 0.650661
v -0.570123 0.748402 -0.797663
v 0.353519 0.496680 -1.036533
v 0.894426 0.447216 0.000000
v 0.000000 1.000000 0.000000
v -0.015738 -0.964271 0.611126
v 0.558863 -0.985904 0.212630
v 0.353946 -0.576059 0.843323
v 1.095362 -0.576057 -0.177152
v 0.558863 -0.985904 -0.566935
v -0.473967 -0.964267 -0.019561
v -0.519339 -0.597432 0.936606
v -0.182551 -0.985904 -0.807839
v -0.524114 -0.515501 -0.764241
v 0.262869 -0.525738 -0.809012
v 0.951058 0.000000 0.309013
v 0.951058 0.000000 -0.309013
v 0.189181 0.108732 1.241824
v -0.022184 1.056292 0.185494
v -0.950070 0.264029 0.623662
v -0.552243 0.108732 1.000921
v -0.393686 0.167448 -1.165668
v -0.693797 0.189727 -0.353851
v 0.664917 0.049460 -0.994901
v 0.369867 0.167448 -1.413762
v 0.820435 0.542887 0.624932
v -0.142398 0.771890 1.000914
v -0.718402 0.542886 0.124935
v 0.028392 0.850399 -1.165662
v 0.765321 0.575197 -0.685881
v 0.294702 0.867805 0.624931
v 0.525730 0.850652 0.000000
v -0.425323 0.850654 0.309011
v 0.763582 -0.519797 1.338560
v 0.239587 0.900115 -0.685879
v -0.787611 0.681305 0.074653
v -0.715685 0.635099 -0.761892
v -0.285154 1.055684 -0.420243
v -0.254946 0.713617 -1.045178
v 0.063037 1.155569 0.074653
v -0.362285 1.006223 0.383664
v 0.170378 1.038533 -0.736162
v 0.083371 -0.420756 1.391081
v 1.275808 0.044603 0.701627
v 1.344750 -0.420755 0.981227
v 0.432003 0.143361 1.579470
v 0.912536 0.044603 1.201631
v 0.780635 0.707477 1.391081
v 1.012940 0.570340 0.892611
v 0.487206 0.895258 0.892609
v 1.086931 0.474669 0.267679
v -0.447507 0.906946 0.494506
v -0.942041 0.720446 0.135211
v -0.872832 0.582028 0.185494
v -0.516716 1.045364 0.444223
v -0.091393 1.194710 0.135211
v -0.217491 0.725741 1.077169
v -0.678230 0.647223 0.793882
v 0.207833 1.050657 0.768152
v 0.321766 0.647223 1.118806
v -0.379945 1.050657 0.577168
v -0.805270 0.725739 0.268157
v -1.365276 0.123456 -0.392447
v -1.069809 0.704409 -0.673965
v -1.063047 0.828684 0.171266
v -1.118100 0.589847 -0.623879
v -1.245141 0.668364 -0.098153
v -1.193483 0.145735 0.572684
v -1.299510 0.510565 0.068873
v -0.974226 0.506356 0.116744
v -1.043435 0.644775 0.066461
v -1.065619 0.701067 0.251955
v -1.368719 0.648984 0.018590
v -0.996410 0.562648 0.302238
v -1.031024 0.591467 0.302657
v -0.944156 0.408614 0.159435
v -0.817115 0.330098 0.685160
v -0.903984 0.512951 0.828382
v -0.493232 1.157711 0.620532
v -0.791517 0.754277 0.837246
v -0.918557 0.832793 0.311521
v -0.225368 1.094780 0.872067
v -0.523653 0.691346 1.088781
v -0.338655 1.201834 0.915431
v -0.636940 0.798400 1.132144
v -0.046257 0.018311 1.560689
v -0.394889 -0.545806 1.372300
v -0.914329 -0.644845 0.929993
v -0.787681 0.018311 1.319786
v -1.245907 0.018311 0.689088
v -1.291965 0.362149 0.752584
v -0.855326 0.289739 0.484286
v -0.598301 0.452571 1.064416
v 0.143123 0.452571 1.305320
v -0.833739 0.362149 1.383281
v -0.092315 0.362149 1.624185
v 1.402757 -0.711774 -0.256789
v 0.967304 -0.554814 0.462591
v 0.866258 -1.121621 -0.646571
v 0.967304 -0.554814 -0.588859
v 1.194754 -0.107594 0.245879
v 1.519505 -0.062991 0.638493
v 0.831482 -0.107594 -0.872151
v 1.194754 -0.107594 -0.372147
v 1.292054 -0.510210 0.855205
v 1.271542 0.081234 0.220475
v 1.027846 0.188828 0.283609
v 1.027846 0.188828 -0.334416
v 0.664574 0.188828 -0.834420
v 1.271542 0.081234 -0.397550
v 0.908270 0.081234 -0.897554
v 0.207817 0.162682 -1.420969
v 0.484205 0.609902 -1.271618
v 0.370273 1.013337 -0.920964
v 0.795603 0.162682 -1.229985
v 0.896007 0.688419 -0.920966
v 0.631745 1.093388 -0.000000
v 0.106016 1.242736 -0.000000
v 0.400717 1.110541 0.624931
v 0.871336 0.817933 -0.685881
v 0.926451 0.785623 0.624932
v -0.962450 -1.041428 0.569205
v -1.300386 -0.912766 -0.250081
v -0.875404 -0.867491 -1.055508
v -0.340460 -0.765496 -1.511018
v -0.744976 -0.184542 -1.456936
v -0.912943 -1.601931 -0.454798
v -0.192458 -1.289571 -1.055506
v 0.018578 -0.184542 -1.705029
v -1.393072 -0.339120 -0.450647
v -1.125163 -0.441121 -1.100160
v -1.466638 0.241829 -0.852064
v -0.994735 0.241829 -1.501587
v -1.744362 -0.691110 -0.741914
v -1.476453 -0.793111 -1.391427
v 0.000000 1.000000 0.000000
v 0.162456 0.850654 -0.499995
v 0.106016 1.242736 -0.000000
v 0.765321 0.575197 -0.685881
v -0.069209 1.138419 -0.050283
v -0.494532 0.989073 -0.359294
v 0.093247 0.989073 -0.550278
v 0.631745 1.093388 -0.000000
v 0.268471 1.093391 -0.499995
v 0.871336 0.817933 -0.685881
vt 0.818181 0.000000
vt 0.772726 0.078731
vt 0.863635 0.078731
vt 0.727272 0.157461
vt 0.681818 0.078731
vt 0.636363 0.157461
vt 0.090909 0.000000
vt 0.045454 0.078731
vt 0.136363 0.078731
vt 0.272727 0.000000
vt 0.227273 0.078731
vt 0.318182 0.078731
vt 0.454545 0.000000
vt 0.409090 0.078731
vt 0.500000 0.078731
vt 0.545454 0.157461
vt 0.545454 0.157461
vt 0.500000 0.078731
vt 0.681818 0.236191
vt 0.727272 0.157461
vt 0.727272 0.157461
vt 0.681818 0.236191
vt 0.181818 0.157461
vt 0.090909 0.157461
vt 0.136363 0.236191
vt 0.181818 0.157461
vt 0.090909 0.157461
vt 0.454545 0.157461
vt 0.500000 0.236191
vt 0.681818 0.236191
vt 0.636363 0.314921
vt 0.636363 0.314921
vt 0.909090 0.157461
vt 0.863635 0.236191
vt 0.863635 0.236191
vt 0.909090 0.157461
vt 0.227273 0.236191
vt 0.272727 0.157461
vt 0.318182 0.236191
vt 0.318182 0.236191
vt 0.272727 0.157461
vt 0.681818 0.236191
vt 0.590909 0.236191
vt 0.590909 0.236191
vt 0.681818 0.236191
vt 0.727272 0.314921
vt 0.727272 0.314921
vt 0.909091 0.314921
vt 0.818181 0.314921
vt 0.818181 0.314921
vt 0.909091 0.314921
vt 0.363636 0.314921
vt 0.272727 0.314921
vt 0.272727 0.314921
vt 0.363636 0.314921
vt 0.454545 0.314921
vt 0.409090 0.393651
vt 0.545454 0.314921
vt 0.590909 0.393651
vt 0.681818 0.393651
vt 0.681818 0.393651
vt 0.727272 0.314921
vt 0.409090 0.393651
vt 0.318182 0.393651
vt 0.318182 0.393651
vt 0.409090 0.393651
vt 0.500000 0.393651
vt 0.545454 0.314921
vt 0.500000 0.393651
vt 0.227273 0.236191
vt 0.272727 0.314921
vt 0.181818 0.314921
vt 0.181818 0.314921
vt 0.181818 0.314921
vt 0.181818 0.314921
vt 0.136363 0.393651
vt 0.181818 0.314921
vt 0.181818 0.314921
vt 0.136363 0.393651
vt 0.545454 0.472382
vt 0.500000 0.393651
vt 0.545454 0.472382
vt 0.136363 0.393651
vt 0.181818 0.314921
vt 0.136363 0.393651
vt 0.954545 0.393651
vt 0.863635 0.393651
vt 0.909090 0.472382
vt 0.090909 0.314921
vt 0.090909 0.314921
vt 0.181818 0.314921
vt 1.000000 0.314921
vt 1.000000 0.314921
vt 0.772726 0.393651
vt 0.772726 0.393651
vt 0.863635 0.393651
vt 0.909090 0.472382
vt 0.590909 0.236191
vt 0.409090 0.393651
vt 0.454545 0.314921
vt 0.409090 0.236191
vt 0.181818 0.314921
vt 0.136363 0.236191
vt 0.181818 0.314921
vt 0.954545 0.236191
vt 0.818181 0.157461
vt 0.818181 0.157461
vt 0.909090 0.157461
vt 0.863635 0.236191
vt 0.772726 0.393651
vt 0.500000 0.236191
vt 0.363636 0.157461
vt 0.318182 0.236191
vt 0.227273 0.236191
vt 0.181818 0.157461
vt 0.181818 0.157461
vt 0.045454 0.236191
vt 0.000000 0.157461
vt 0.000000 0.157461
vt 0.090909 0.157461
vt 0.136363 0.236191
vt 0.818181 0.314921
vt 0.863635 0.393651
vt 0.636363 0.157461
vt 0.727272 0.157461
vt 0.227273 0.078731
vt 0.318182 0.078731
vt 0.136363 0.078731
vt 0.363636 0.157461
vt 0.409090 0.236191
vt 0.272727 0.157461
vt 0.272727 0.157461
vt 0.590909 0.078731
vt 0.590909 0.078731
vt 0.636363 0.000000
vt 0.227273 0.393651
vt 0.727272 0.472382
vt 0.681818 0.393651
vt 0.727272 0.472382
vt 0.181818 0.472382
vt 0.772726 0.236191
vt 0.954545 0.393651
vt 0.909090 0.472382
vt 0.909090 0.472382
vt 0.954545 0.393651
vt 0.136363 0.393651
vt 0.181818 0.472382
vt 0.545454 0.472382
vt 0.545454 0.472382
vt 0.954545 0.393651
vt 0.181818 0.314921
vt 0.136363 0.393651
vt 0.863635 0.393651
vt 0.181818 0.314921
vt 0.272727 0.314921
vt 0.181818 0.314921
vt 0.181818 0.314921
vt 0.181818 0.314921
vt 0.090909 0.314921
vt 0.181818 0.314921
vt 1.000000 0.314921
vt 1.000000 0.314921
vt 0.090909 0.314921
vt 0.090909 0.314921
vt 0.090909 0.314921
vt 0.136363 0.393651
vt 1.000000 0.314921
vt 0.954545 0.393651
vt 0.954545 0.393651
vt 1.000000 0.314921
vt 0.090909 0.314921
vt 0.136363 0.393651
vt 0.954545 0.236191
vt 0.045454 0.236191
vt 0.136363 0.236191
vt 0.136363 0.236191
vt 0.863635 0.236191
vt 0.954545 0.236191
vt 0.863635 0.236191
vt 0.954545 0.236191
vt 0.045454 0.236191
vt 0.045454 0.236191
vt 0.500000 0.236191
vt 0.681818 0.236191
vt 0.590909 0.236191
vt 0.500000 0.236191
vt 0.500000 0.236191
vt 0.409090 0.236191
vt 0.545454 0.314921
vt 0.545454 0.314921
vt 0.545454 0.314921
vt 0.500000 0.393651
vt 0.545454 0.472382
vt 0.590909 0.393651
vt 0.909090 0.472382
vt 0.909090 0.472382
vt 0.409090 0.078731
vt 0.500000 0.393651
vt 0.500000 0.393651
vt 0.363636 0.472382
vt 0.590909 0.393651
vt 0.545454 0.472382
vt 0.545454 0.472382
vt 0.181818 0.472382
vt 0.227273 0.393651
vn 0.1453 -0.9543 0.2613
vn 0.7002 -0.6617 0.2680
vn -0.3164 -0.9203 0.2299
vn -0.4213 -0.8974 -0.1311
vn 0.1024 -0.9435 -0.3151
vn -0.1930 0.1334 -0.9721
vn 0.7820 0.1874 0.5944
vn -0.8897 -0.3304 0.3151
vn -0.7927 0.4607 0.3993
vn 0.5005 -0.5625 -0.6581
vn 0.7719 -0.2710 -0.5751
vn 0.7277 -0.5747 0.3743
vn -0.9648 0.0555 -0.2572
vn -0.7901 0.4157 0.4505
vn 0.9263 -0.3767 0.0000
vn 0.0596 0.9878 -0.1442
vn -0.0752 -0.8186 -0.5695
vn 0.5233 -0.4422 0.7284
vn 0.7453 0.5447 -0.3845
vn 0.7381 0.6746 -0.0131
vn 0.7756 -0.3388 -0.5326
vn 0.3500 0.6232 0.6994
vn 0.4303 0.6962 0.5745
vn -0.0714 0.9221 -0.3803
vn -0.0112 -0.5340 -0.8454
vn 0.2662 -0.8188 0.5086
vn -0.0761 0.7377 -0.6709
vn 0.9742 0.0018 0.2256
vn -0.1616 0.7142 -0.6810
vn -0.1402 0.9532 0.2678
vn 0.4688 -0.8500 -0.2402
vn -0.0053 -0.8505 0.5259
vn -0.0000 0.0000 1.0000
vn -0.8141 0.3556 0.4591
vn 0.7381 0.6745 -0.0159
vn 0.9654 0.2195 -0.1408
vn 0.9231 0.0480 -0.3816
vn -0.8916 0.1262 -0.4349
vn 0.7384 0.5236 -0.4250
vn -0.3035 0.1876 -0.9342
vn -0.5346 0.3304 -0.7779
vn 0.1754 0.6367 0.7509
vn 0.5454 0.5134 0.6626
vn -0.4869 0.8390 0.2430
vn -0.7201 0.4451 0.5323
vn -0.3035 0.1876 0.9342
vn -0.0247 0.3304 0.9435
vn -0.1323 -0.9689 0.2094
vn -0.7871 0.3079 0.5345
vn 0.4767 0.7712 -0.4219
vn 0.8792 -0.3548 0.3179
vn 0.5752 -0.5864 -0.5704
vn -0.0368 -0.6537 -0.7558
vn -0.9365 -0.0663 -0.3444
vn 0.0765 0.9968 0.0252
vn -0.7064 0.1292 0.6959
vn -0.3978 0.6212 0.6752
vn 0.2358 -0.9706 0.0477
vn 0.0539 -0.3170 -0.9469
vn 0.1573 -0.9874 -0.0179
vn -0.8027 0.2186 0.5549
vn -0.6916 0.5739 0.4385
vn 0.9921 0.1256 0.0000
vn -0.5482 -0.8323 -0.0821
vn 0.3011 0.8871 -0.3498
vn 0.5334 -0.0989 -0.8401
vn 0.2959 -0.2887 -0.9106
vn 0.0670 -0.0674 -0.9955
vn 0.6968 -0.6082 0.3803
vn 0.5648 -0.7366 0.3720
vn 0.7885 -0.6092 0.0849
vn 0.4967 0.2026 -0.8439
vn -0.4227 -0.8527 0.3071
vn 0.0125 -0.6539 0.7564
vn -0.0787 -0.6310 0.7718
vn 0.6071 -0.7947 0.0000
vn 0.3313 -0.9435 0.0000
vn 0.1684 -0.6191 0.7670
vn 0.3807 -0.7140 0.5876
vn 0.4713 -0.6617 0.5831
vn -0.6547 0.7495 -0.0977
vn -0.2945 0.8322 -0.4698
vn -0.4130 0.7903 -0.4526
vn -0.3127 0.9494 0.0284
vn -0.6030 0.7977 -0.0088
vn 0.0247 -0.3304 0.9435
vn 0.7313 0.4276 0.5313
vn 0.5257 0.8506 0.0110
vn 0.9112 0.0651 0.4068
vn 0.7947 0.1876 0.5773
vn 0.8994 0.4352 0.0399
vn 0.6009 -0.1068 0.7921
vn 0.6212 0.0261 0.7832
vn 0.5135 0.0719 0.8551
vn 0.3977 0.4824 0.7805
vn -0.5878 0.0000 0.8090
vn -0.4223 -0.4387 -0.7932
vn 0.5053 -0.8071 0.3054
vn 0.3218 -0.7817 0.5342
vn 0.8060 -0.0321 0.5910
vn -0.4713 0.6617 0.5831
vn 0.1899 0.5346 -0.8235
vn -0.1876 0.7947 0.5773
vn 0.0385 0.6617 0.7488
vn 0.2417 0.7224 -0.6479
vn 0.5942 0.7460 0.3006
vn 0.6872 -0.7075 0.1649
vn -0.9007 0.4309 -0.0561
vn -0.9473 0.2763 0.1622
vn 0.1921 -0.9797 0.0571
vn 0.2637 0.1355 0.9550
vn -0.0631 0.9930 -0.1001
vn -0.8979 -0.4395 0.0260
vn -0.1364 0.2773 0.9511
vn -0.0764 0.9696 0.2325
vn 0.0839 0.1886 -0.9785
vn 0.6076 -0.6665 -0.4319
vn -0.2662 0.8188 -0.5086
vn -0.8522 -0.5068 0.1302
vn 0.3887 -0.4465 0.8059
vn -0.3887 0.4465 -0.8059
vn -0.4688 0.8500 0.2402
vn -0.7002 0.6617 0.2680
vn -0.6750 -0.7359 0.0532
vn 0.4602 0.1314 0.8780
vn -0.5458 -0.7382 0.3965
vn 0.5458 0.7382 -0.3965
vn 0.7002 -0.6617 -0.2680
vn -0.3066 -0.1256 0.9435
vn -0.7947 -0.1876 0.5773
vn -0.5746 -0.3304 0.7488
vn -0.3837 -0.1370 -0.9133
vn -0.3020 -0.2121 0.9294
vn -0.0723 0.9723 0.2224
vn -0.0945 0.9925 -0.0777
vn 0.8047 -0.0018 0.5937
vn 0.3020 0.2121 -0.9294
vn 0.8061 -0.2191 -0.5497
vn -0.7906 -0.2120 0.5744
vn 0.8283 -0.1613 0.5366
vn 0.6630 -0.5715 -0.4835
vn 0.8026 -0.1256 -0.5831
vn 0.9455 0.3255 0.0000
vn 0.6196 0.0640 -0.7823
vn 0.6003 -0.0256 -0.7993
vn -0.6609 -0.4533 0.5981
vn -0.3036 -0.6314 -0.7135
vn 0.2606 0.0239 0.9652
vn 0.4039 0.9148 0.0000
vn 0.3377 0.9087 -0.2453
vn 0.7491 -0.3778 -0.5442
vn -0.9263 0.3767 0.0000
vn -0.8770 0.0065 0.4805
vn 0.3213 0.2955 -0.8997
vn 0.4089 0.6617 -0.6284
vn 0.5746 0.3304 -0.7488
vn 0.3066 0.1256 -0.9435
vn -0.9614 0.1823 0.2060
vn 0.1717 -0.8907 -0.4209
vn -0.3600 0.8970 -0.2564
vn 0.2725 0.9593 0.0744
vn 0.5182 0.8385 0.1686
vn 0.8259 -0.3607 0.4334
vn -0.5746 -0.3304 -0.7488
vn -0.3066 -0.1256 -0.9435
vn -0.4089 -0.6617 -0.6284
vn -0.3585 -0.5800 -0.7315
vn -0.8272 -0.3299 -0.4550
vn -0.8101 -0.5299 0.2509
vn 0.9746 0.1397 -0.1751
vn -0.2083 0.7385 -0.6412
vn -0.7947 -0.1876 -0.5773
vn -0.8897 -0.3304 -0.3151
vn -0.5131 0.7899 -0.3357
vn -0.4928 0.5245 0.6943
vn 0.3658 -0.5225 -0.7702
vn -0.2219 -0.9727 -0.0677
vn -0.2475 0.1081 -0.9628
vn -0.1024 0.9435 -0.3151
vn 0.2680 0.9435 -0.1947
vn 0.3389 0.9080 -0.2463
vn -0.8457 0.3694 -0.3851
vn 0.4804 0.7773 0.4062
vn 0.9268 -0.1477 0.3453
vn 0.2217 -0.9712 0.0878
usemtl None
s off
f 1/1/1 14/2/1 13/3/1
f 2/4/2 14/5/2 16/6/2
f 1/7/3 13/8/3 18/9/3
f 1/10/4 18/11/4 20/12/4
f 1/13/5 20/14/5 17/15/5
f 17/15/6 6/16/6 107/17/6 106/18/6
f 51/19/7 52/20/7 112/21/7 109/22/7
f 4/23/8 19/24/8 27/25/8
f 19/24/9 4/23/9 130/26/9 129/27/9
f 6/16/10 22/28/10 31/29/10
f 23/30/11 11/31/11 58/32/11 51/19/11
f 3/33/12 25/34/12 93/35/12 94/36/12
f 4/23/13 27/25/13 30/37/13
f 21/38/14 29/39/14 133/40/14 131/41/14
f 108/42/15 111/43/15 117/44/15 113/45/15
f 11/31/16 33/46/16 56/47/16 58/32/16
f 34/48/17 7/49/17 67/50/17 64/51/17
f 36/52/18 9/53/18 44/54/18 46/55/18
f 10/56/19 36/52/19 42/57/19
f 11/31/20 37/58/20 39/59/20
f 33/46/21 39/60/21 124/61/21 128/62/21
f 49/63/22 45/64/22 148/65/22 149/66/22
f 42/67/23 37/58/23 123/68/23 121/69/23
f 42/57/24 36/52/24 46/55/24 49/63/24
f 9/53/25 30/37/25 70/70/25 71/71/25
f 35/72/26 61/73/26 81/74/26 77/75/26
f 48/76/27 43/77/27 60/78/27 62/79/27
f 12/80/28 42/67/28 49/81/28 47/82/28
f 40/83/29 35/72/29 69/84/29 68/85/29
f 40/86/30 38/87/30 12/88/30
f 35/72/31 8/89/31 84/90/31 83/91/31
f 8/92/32 34/48/32 64/51/32 65/93/32
f 38/94/33 33/46/33 128/62/33 126/95/33
f 12/88/34 38/87/34 126/96/34 125/97/34
f 33/46/35 11/31/35 39/60/35
f 24/98/36 37/58/36 11/31/36
f 24/98/37 31/29/37 37/58/37
f 10/56/38 42/57/38 121/99/38 120/100/38
f 32/101/39 36/52/39 10/56/39
f 32/101/40 29/39/40 36/52/40
f 29/39/41 9/53/41 36/52/41
f 27/25/42 35/72/42 72/102/42 75/103/42
f 61/73/43 60/78/43 79/104/43 81/74/43
f 27/25/44 8/89/44 35/72/44
f 28/105/45 34/48/45 8/92/45
f 28/105/46 25/34/46 34/48/46
f 25/34/47 7/49/47 34/48/47
f 3/33/48 15/106/48 41/107/48 50/108/48
f 25/34/49 3/33/49 50/108/49 53/109/49
f 33/46/50 38/94/50 57/110/50 56/47/50
f 37/58/51 31/29/51 122/111/51 123/68/51
f 31/29/52 22/28/52 32/101/52
f 22/28/53 5/112/53 32/101/53
f 29/39/54 30/37/54 9/53/54
f 30/37/55 29/39/55 140/113/55 139/114/55
f 130/26/56 4/23/56 137/115/56 141/116/56
f 27/25/57 28/117/57 8/89/57
f 19/24/58 3/118/58 94/119/58 95/120/58
f 27/25/59 19/24/59 95/120/59 97/121/59
f 15/106/60 2/4/60 52/20/60 41/107/60
f 38/87/61 7/49/61 55/122/61 57/123/61
f 7/49/62 25/34/62 53/109/62 55/122/62
f 23/30/63 24/98/63 11/31/63
f 2/4/64 16/6/64 104/124/64 105/125/64
f 23/30/65 51/19/65 109/22/65 108/42/65
f 17/15/66 22/28/66 6/16/66
f 17/15/67 20/14/67 22/28/67
f 20/14/68 5/112/68 22/28/68
f 20/12/69 18/11/69 134/126/69 135/127/69
f 18/9/70 19/24/70 129/27/70 134/128/70
f 32/101/71 5/112/71 132/129/71 136/130/71
f 21/38/72 131/41/72 142/131/72 138/132/72
f 18/9/73 13/8/73 19/24/73
f 13/8/74 3/118/74 19/24/74
f 16/6/75 17/133/75 106/134/75 104/124/75
f 16/6/76 14/5/76 17/133/76
f 14/5/77 1/135/77 17/133/77
f 13/3/78 15/106/78 3/33/78
f 13/3/79 14/2/79 15/106/79
f 14/2/80 2/4/80 15/106/80
f 44/54/81 43/77/81 45/136/81
f 125/137/33 124/61/33 150/138/33 145/139/33
f 49/63/82 46/55/82 45/64/82
f 46/55/83 44/54/83 45/64/83
f 45/136/84 48/76/84 47/140/84
f 45/136/85 43/77/85 48/76/85
f 50/108/86 41/107/86 53/109/86
f 52/20/87 51/19/87 54/141/87
f 55/122/88 56/47/88 57/110/88
f 54/141/89 56/47/89 55/122/89
f 54/141/90 51/19/90 56/47/90
f 51/19/91 58/32/91 56/47/91
f 53/109/92 54/141/92 55/122/92
f 53/109/93 41/107/93 54/141/93
f 41/107/94 52/20/94 54/141/94
f 59/142/95 26/143/95 63/144/95 62/145/95
f 61/73/96 59/146/96 62/79/96 60/78/96
f 47/140/97 48/76/97 62/79/97 63/147/97
f 40/86/98 12/88/98 26/143/98 59/142/98
f 35/72/99 40/83/99 59/146/99 61/73/99
f 12/80/100 47/82/100 63/148/100 26/149/100
f 65/93/101 64/51/101 68/150/101
f 68/85/102 69/84/102 88/151/102 86/152/102
f 68/150/103 64/51/103 66/153/103
f 64/51/104 67/50/104 66/153/104
f 38/87/105 40/86/105 68/150/105 66/153/105
f 7/49/106 38/87/106 66/153/106 67/50/106
f 71/71/107 72/102/107 74/154/107 73/155/107
f 70/70/108 72/102/108 71/71/108
f 70/70/109 75/103/109 72/102/109
f 30/37/110 27/25/110 75/103/110 70/70/110
f 44/54/111 9/53/111 71/71/111 73/155/111
f 43/77/112 44/54/112 73/155/112 74/154/112
f 78/156/113 77/75/113 81/74/113 79/104/113
f 77/75/114 78/156/114 80/157/114 76/158/114
f 43/77/115 74/154/115 80/157/115 78/156/115
f 72/102/116 35/72/116 77/75/116 76/158/116
f 74/154/117 72/102/117 76/158/117 80/157/117
f 60/78/118 43/77/118 78/156/118 79/104/118
f 83/91/119 84/90/119 85/159/119 82/160/119
f 8/92/120 65/93/120 85/161/120 84/162/120
f 69/84/121 35/72/121 83/91/121 82/160/121
f 65/163/122 69/84/122 82/160/122 85/159/122
f 88/151/123 87/164/123 86/152/123
f 69/84/124 65/163/124 87/164/124 88/151/124
f 86/152/123 87/164/123 92/165/123 91/166/123
f 90/167/125 89/168/125 91/169/125 92/170/125
f 87/164/126 65/163/126 90/171/126 92/165/126
f 68/85/127 86/152/127 91/166/127 89/172/127
f 65/93/128 68/150/128 89/168/128 90/167/128
f 94/36/129 93/35/129 96/173/129
f 97/121/130 95/120/130 96/174/130
f 95/120/131 94/119/131 96/174/131
f 27/25/132 97/121/132 98/175/132 99/176/132
f 96/173/133 93/35/133 103/177/133 102/178/133
f 101/179/134 100/180/134 102/178/134 103/177/134
f 100/181/135 99/176/135 98/175/135 102/182/135
f 93/35/136 25/34/136 101/179/136 103/177/136
f 25/34/137 28/105/137 100/180/137 101/179/137
f 28/117/138 27/25/138 99/176/138 100/181/138
f 97/121/139 96/174/139 102/182/139 98/175/139
f 105/125/140 104/124/140 108/42/140
f 105/125/141 108/42/141 109/22/141 112/21/141
f 107/17/142 110/183/142 111/43/142
f 108/42/143 104/124/143 111/43/143
f 104/124/144 107/17/144 111/43/144
f 104/124/145 106/134/145 107/17/145
f 52/20/146 2/4/146 105/125/146 112/21/146
f 6/16/147 31/29/147 110/183/147 107/17/147
f 23/30/148 108/42/148 113/45/148 114/184/148
f 115/185/149 114/184/149 113/45/149 117/44/149
f 116/186/150 115/185/150 117/44/150 118/187/150
f 111/43/151 110/183/151 118/187/151 117/44/151
f 24/98/152 23/30/152 114/184/152 115/185/152
f 31/29/153 24/98/153 115/185/153 116/186/153
f 110/183/154 31/29/154 116/186/154 118/187/154
f 123/68/155 120/100/155 121/69/155
f 122/111/156 120/100/156 123/68/156
f 122/111/157 119/188/157 120/100/157
f 32/101/158 10/56/158 120/100/158 119/188/158
f 31/29/159 32/101/159 119/188/159 122/111/159
f 127/189/33 37/58/33 146/190/33 152/191/33
f 47/82/160 49/81/160 149/192/160 147/193/160
f 126/95/161 124/61/161 125/137/161
f 126/95/162 128/62/162 124/61/162
f 39/59/163 37/58/163 127/189/163 124/194/163
f 12/88/33 125/97/33 145/195/33 143/196/33
f 132/129/164 131/41/164 133/40/164
f 132/129/165 133/40/165 136/130/165
f 135/127/166 131/41/166 132/129/166
f 135/127/167 134/126/167 131/41/167
f 134/126/168 130/26/168 131/41/168
f 134/128/169 129/27/169 130/26/169
f 5/112/170 20/14/170 135/197/170 132/129/170
f 29/39/171 32/101/171 136/130/171 133/40/171
f 140/113/172 138/132/172 139/114/172
f 138/132/173 137/115/173 139/114/173
f 137/115/174 138/132/174 142/131/174 141/116/174
f 4/23/175 30/37/175 139/114/175 137/115/175
f 29/39/176 21/38/176 138/132/176 140/113/176
f 131/41/177 130/26/177 141/116/177 142/131/177
f 146/190/178 144/198/178 151/199/178 152/191/178
f 149/66/179 148/65/179 147/200/179
f 150/201/180 151/199/180 145/202/180
f 150/201/181 152/191/181 151/199/181
f 144/198/182 143/203/182 145/202/182 151/199/182
f 124/194/33 127/189/33 152/191/33 150/201/33
f 37/58/183 42/67/183 144/198/183 146/190/183
f 42/67/184 12/80/184 143/203/184 144/198/184
f 45/136/185 47/140/185 147/204/185 148/205/185
