# Blender v2.82 (sub 7) OBJ File: ''
# www.blender.org
mtllib 6.mtl
o Torus
v -0.944024 -0.964272 -0.975900
v -0.285798 -0.977308 -1.066098
v -1.091127 -0.950679 -0.847038
v -0.041440 -0.732715 -1.013167
v -0.966001 -0.950657 -0.759148
v 0.146316 -0.743053 -0.957757
v -1.075881 -0.912320 -0.628492
v 0.319675 -0.752520 -0.866727
v -1.086050 -1.073792 -0.399147
v 0.471975 -0.760751 -0.743575
v -1.106235 -1.109825 -0.207512
v 0.597363 -0.767432 -0.593033
v -1.089383 -1.155944 -0.017727
v 0.643850 -0.848664 -0.410331
v -1.036143 -1.210379 0.162916
v 0.720580 -0.820061 -0.232219
v -0.648054 -1.163129 -0.272284
v 0.760646 -0.789155 -0.042828
v -0.529495 -1.227679 -0.130134
v 0.704062 -0.959314 0.123251
v -0.384517 -1.293640 -0.015854
v 0.664419 -0.929853 0.312962
v -0.218689 -1.358478 0.066162
v 0.588118 -0.903759 0.491642
v -0.099578 -1.364577 0.315518
v 0.707107 -1.000000 0.707107
v -0.151041 -1.582863 0.721918
v 0.555570 -1.000000 0.831470
v 0.152005 -1.367090 0.894616
v 0.382683 -1.000000 0.923880
v 0.333281 -1.404350 0.829962
v 0.195090 -1.000000 0.980785
v 0.385820 -1.693211 0.530441
v -0.024001 -0.680550 1.141610
v 0.532924 -1.706803 0.401579
v -0.219092 -0.680550 1.122395
v 0.654071 -1.707541 0.247461
v -0.382684 -1.000000 0.923879
v 0.846586 -1.578235 -0.030072
v -0.053473 -0.941275 0.377478
v 0.586178 -1.521943 -0.047070
v -0.205009 -0.941275 0.253115
v 0.582915 -1.506166 -0.242441
v -0.329372 -0.941275 0.101578
v 0.542015 -1.484369 -0.432918
v -0.421782 -0.941275 -0.071309
v 0.071730 -0.024566 -0.194394
v -0.478687 -0.941275 -0.258902
v 0.465048 -1.457390 -0.611181
v -1.000000 -1.000000 -0.000001
v 0.354973 -1.426266 -0.770379
v -0.980785 -1.000000 -0.195091
v 0.216019 -1.392194 -0.904395
v -0.923879 -1.000000 -0.382684
v 0.126819 -1.255934 -1.029363
v -0.831469 -1.000000 -0.555571
v -0.039008 -1.191096 -1.111379
v -0.707106 -1.000000 -0.707108
v -0.219312 -1.129874 -1.157981
v -0.555569 -1.000000 -0.831470
v -0.407164 -1.074619 -1.167377
v -0.668480 -0.977308 -0.989978
v -0.595343 -1.027455 -1.139207
v -0.480887 -0.977308 -1.046883
v -0.776619 -0.990196 -1.074552
v -0.611516 -1.024131 -1.133438
v 0.584551 -1.707118 0.335901
v -0.371197 -1.298848 -0.009267
v 0.292125 -1.736883 -0.423739
v -0.292400 -0.941275 0.146629
v 0.403828 -1.440080 -0.699722
v 0.354483 -1.520920 0.709089
v -0.081212 -1.445654 -0.141050
v -0.814712 -0.984297 -1.052104
v -0.259781 -1.117970 -1.160005
v -1.095693 -1.138675 -0.088790
v -0.465441 -1.107544 -0.953988
v -1.031325 -1.389307 -0.461730
vt 0.419706 0.419706
vt 0.449553 0.383337
vt 0.449553 0.383337
vt 0.419706 0.419706
vt 0.250000 0.490000
vt 0.250000 0.250000
vt 0.296822 0.485388
vt 0.203179 0.485389
vt 0.250000 0.490000
vt 0.239346 0.488951
vt 0.203179 0.485389
vt 0.341844 0.471731
vt 0.419706 0.080294
vt 0.383337 0.050447
vt 0.383337 0.050447
vt 0.419706 0.080294
vt 0.383337 0.449553
vt 0.080294 0.080294
vt 0.059321 0.105851
vt 0.052845 0.113742
vt 0.080294 0.080294
vt 0.080295 0.419706
vt 0.116663 0.449553
vt 0.116663 0.449553
vt 0.080295 0.419706
vt 0.341844 0.471731
vt 0.296822 0.485388
vt 0.471731 0.341844
vt 0.485388 0.203178
vt 0.471731 0.158156
vt 0.471731 0.158156
vt 0.485388 0.203178
vt 0.485388 0.296822
vt 0.203178 0.014612
vt 0.158156 0.028269
vt 0.158156 0.028269
vt 0.203178 0.014612
vt 0.490000 0.250000
vt 0.014612 0.296822
vt 0.028269 0.341844
vt 0.028269 0.341844
vt 0.019725 0.313680
vt 0.014612 0.296822
vt 0.485388 0.296822
vt 0.471731 0.341844
vt 0.341844 0.028269
vt 0.296822 0.014612
vt 0.296822 0.014612
vt 0.341844 0.028269
vt 0.449553 0.116663
vt 0.028269 0.158156
vt 0.014611 0.203179
vt 0.014611 0.203179
vt 0.028269 0.158156
vt 0.158156 0.471731
vt 0.158156 0.471731
vt 0.383337 0.449553
vt 0.449553 0.116663
vt 0.116663 0.050447
vt 0.116663 0.050447
vt 0.250000 0.010000
vt 0.050447 0.383337
vt 0.050447 0.383337
vt 0.490000 0.250000
vt 0.250000 0.010000
vt 0.010000 0.250000
vt 0.010000 0.250000
vt 0.050447 0.116663
vt 0.292644 0.485800
vt 0.359526 0.037720
vt 0.050447 0.116663
vt 0.374398 0.454331
vt 0.487435 0.276041
vt 0.268895 0.011861
vt 0.750000 0.490000
vt 0.792644 0.485800
vt 0.800813 0.431076
vt 0.729982 0.395034
vt 0.739346 0.488951
vt 0.859526 0.037720
vt 0.827744 0.250650
vt 0.987435 0.276041
vt 0.990000 0.250000
vt 0.985388 0.203178
vt 0.971731 0.158156
vt 0.949553 0.116663
vt 0.919706 0.080294
vt 0.883337 0.050447
vt 0.552845 0.113742
vt 0.709726 0.191874
vt 0.768895 0.011861
vt 0.750000 0.010000
vt 0.703178 0.014612
vt 0.658156 0.028269
vt 0.616663 0.050447
vt 0.580294 0.080294
vt 0.874398 0.454331
vt 0.883337 0.449553
vt 0.919706 0.419706
vt 0.949553 0.383337
vt 0.971731 0.341844
vt 0.985388 0.296822
vt 0.841844 0.028269
vt 0.796822 0.014612
vt 0.519726 0.313680
vt 0.528269 0.341844
vt 0.550447 0.383337
vt 0.580295 0.419706
vt 0.616663 0.449553
vt 0.658156 0.471731
vt 0.703179 0.485389
vt 0.796822 0.485388
vt 0.841844 0.471731
vt 0.550447 0.116663
vt 0.528269 0.158156
vt 0.514611 0.203179
vt 0.510000 0.250000
vt 0.514612 0.296822
vn 0.6260 0.0137 -0.7797
vn -0.5574 0.6645 -0.4977
vn -0.0172 0.9641 -0.2650
vn 0.2327 0.7194 -0.6544
vn 0.7568 -0.3950 0.5208
vn 0.3633 0.6959 -0.6195
vn -0.6237 -0.2529 0.7396
vn 0.4846 0.6768 -0.5541
vn 0.1800 0.9830 0.0367
vn 0.5888 0.6640 -0.4609
vn 0.1150 0.3036 -0.9458
vn 0.8257 0.5627 0.0401
vn 0.9762 -0.2170 0.0011
vn 0.7018 0.5913 -0.3973
vn -0.2326 -0.4091 0.8823
vn 0.7426 0.6180 -0.2580
vn -0.6598 0.7512 0.0218
vn 0.4475 0.5440 0.7098
vn 0.8209 -0.0563 -0.5683
vn 0.8127 0.5771 0.0802
vn 0.4203 -0.4464 0.7900
vn 0.7502 0.6200 0.2298
vn -0.7918 0.3617 0.4921
vn 0.8924 0.2143 -0.3971
vn 0.0479 0.9988 0.0133
vn 0.4209 0.7482 0.5129
vn 0.4694 0.1052 -0.8767
vn 0.3076 0.7578 0.5755
vn 0.5745 0.6271 -0.5261
vn 0.1868 0.7655 0.6158
vn -0.8054 -0.1149 0.5814
vn 0.8517 0.4437 0.2789
vn 0.1848 0.8797 0.4382
vn -0.0431 0.8980 0.4378
vn 0.9631 -0.2050 -0.1744
vn -0.8957 0.4441 0.0234
vn 0.0825 -0.3186 0.9443
vn -0.8268 -0.2121 -0.5210
vn -0.8652 0.4791 0.1478
vn -0.5514 0.4945 0.6719
vn 0.8166 -0.2359 -0.5269
vn -0.6793 0.4772 0.5575
vn -0.2745 0.6058 0.7468
vn -0.7766 0.4738 0.4151
vn 0.5770 -0.4378 0.6895
vn -0.8370 0.4847 0.2539
vn -0.7684 0.0194 0.6397
vn 0.4495 -0.3284 0.8307
vn 0.0916 0.9958 0.0031
vn -0.6782 0.7318 -0.0668
vn 0.2959 0.2034 -0.9333
vn -0.6657 0.7184 -0.2019
vn 0.9509 -0.2426 0.1924
vn -0.6264 0.7040 -0.3348
vn -0.9195 -0.0680 -0.3871
vn -0.5602 0.6890 -0.4598
vn -0.4108 0.9110 -0.0368
vn -0.4685 0.6742 -0.5709
vn 0.9104 -0.1318 -0.3922
vn -0.7987 0.1299 0.5875
vn 0.9398 0.2255 0.2566
vn -0.1419 -0.8308 -0.5382
vn -0.2028 0.7157 -0.6684
vn -0.0712 0.6877 -0.7225
vn 0.6077 -0.0142 0.7940
vn 0.5510 -0.7590 -0.3468
vn -0.7169 -0.1286 0.6852
vn -0.1654 -0.9829 0.0810
vn -0.1876 -0.8370 -0.5141
vn -0.5194 -0.8410 0.1514
vn -0.8989 -0.3124 -0.3072
vn -0.2368 -0.9317 -0.2756
vn -0.2669 -0.9388 -0.2176
vn -0.2193 -0.8047 0.5516
usemtl None
s off
f 10/1/1 12/2/1 55/3/1 57/4/1
f 2/5/2 47/6/2 4/7/2
f 64/8/3 2/5/3 65/9/3 74/10/3 1/11/3
f 4/7/4 47/6/4 6/12/4
f 26/13/5 28/14/5 37/15/5 39/16/5
f 6/12/6 47/6/6 8/17/6
f 42/18/7 70/19/7 68/20/7 23/21/7
f 8/17/8 47/6/8 10/1/8
f 58/22/9 60/23/9 5/24/9 7/25/9
f 10/1/10 47/6/10 12/2/10
f 4/7/11 6/12/11 61/26/11 63/27/11
f 12/2/12 47/6/12 14/28/12
f 20/29/13 22/30/13 43/31/13 45/32/13
f 14/28/14 47/6/14 16/33/14
f 36/34/15 38/35/15 27/36/15 29/37/15
f 16/33/16 47/6/16 18/38/16
f 52/39/17 54/40/17 11/41/17 76/42/17 13/43/17
f 18/38/18 47/6/18 20/29/18
f 14/28/19 16/33/19 51/44/19 53/45/19
f 20/29/20 47/6/20 22/30/20
f 30/46/21 32/47/21 33/48/21 35/49/21
f 22/30/22 47/6/22 24/50/22
f 46/51/23 48/52/23 17/53/23 19/54/23
f 24/50/24 47/6/24 26/13/24
f 62/55/25 64/8/25 1/11/25 3/56/25
f 26/13/26 47/6/26 28/14/26
f 8/17/27 10/1/27 57/4/27 59/57/27
f 28/14/28 47/6/28 30/46/28
f 24/50/29 26/13/29 39/16/29 41/58/29
f 30/46/30 47/6/30 32/47/30
f 40/59/31 42/18/31 23/21/31 25/60/31
f 32/47/32 47/6/32 34/61/32
f 56/62/33 58/22/33 7/25/33 9/63/33
f 34/61/34 47/6/34 36/34/34
f 18/38/35 20/29/35 45/32/35 49/64/35
f 36/34/36 47/6/36 38/35/36
f 34/61/37 36/34/37 29/37/37 31/65/37
f 38/35/38 47/6/38 40/59/38
f 50/66/39 52/39/39 13/43/39 15/67/39
f 40/59/40 47/6/40 42/18/40
f 12/2/41 14/28/41 53/45/41 55/3/41
f 42/18/42 47/6/42 44/68/42 70/19/42
f 2/5/43 4/7/43 63/27/43 66/69/43 65/9/43
f 44/68/44 47/6/44 46/51/44
f 28/14/45 30/46/45 35/49/45 67/70/45 37/15/45
f 46/51/46 47/6/46 48/52/46
f 44/68/47 46/51/47 19/54/47 21/71/47
f 48/52/48 47/6/48 50/66/48
f 60/23/49 62/55/49 3/56/49 5/24/49
f 50/66/50 47/6/50 52/39/50
f 6/12/51 8/17/51 59/57/51 75/72/51 61/26/51
f 52/39/52 47/6/52 54/40/52
f 22/30/53 24/50/53 41/58/53 43/31/53
f 54/40/54 47/6/54 56/62/54
f 38/35/55 40/59/55 25/60/55 27/36/55
f 56/62/56 47/6/56 58/22/56
f 54/40/57 56/62/57 9/63/57 11/41/57
f 58/22/58 47/6/58 60/23/58
f 16/33/59 18/38/59 49/64/59 71/73/59 51/44/59
f 60/23/60 47/6/60 62/55/60
f 32/47/61 34/61/61 31/65/61 72/74/61 33/48/61
f 65/75/62 66/76/62 77/77/62 78/78/62 74/79/62
f 62/55/63 47/6/63 64/8/63
f 64/8/64 47/6/64 2/5/64
f 48/52/65 50/66/65 15/67/65 17/53/65
f 67/80/66 69/81/66 71/82/66 49/83/66 45/84/66 43/85/66 41/86/66 39/87/66 37/88/66
f 68/20/67 70/19/67 44/68/67 21/71/67
f 68/89/68 73/90/68 72/91/68 31/92/68 29/93/68 27/94/68 25/95/68 23/96/68
f 71/82/69 69/81/69 77/77/69 75/97/69 59/98/69 57/99/69 55/100/69 53/101/69 51/102/69
f 72/91/70 73/90/70 69/81/70 67/80/70 35/103/70 33/104/70
f 74/79/71 78/78/71 76/105/71 11/106/71 9/107/71 7/108/71 5/109/71 3/110/71 1/111/71
f 78/78/72 77/77/72 69/81/72 73/90/72
f 75/97/73 77/77/73 66/76/73 63/112/73 61/113/73
f 76/105/74 78/78/74 73/90/74 68/89/74 21/114/74 19/115/74 17/116/74 15/117/74 13/118/74
