# Blender v2.82 (sub 7) OBJ File: ''
# www.blender.org
mtllib 8.mtl
o Plane
v -1.562216 -0.170855 1.723309
v 1.000000 0.000000 1.000000
v -2.082544 -0.416108 -0.377060
v 1.000000 0.000000 -1.000000
v -0.343203 -1.431367 2.041073
v 1.036497 -0.945794 2.054537
v -0.963503 -0.945794 0.054537
v 1.036497 -0.945794 0.054537
v 0.155716 -0.246692 -2.202661
v -1.844284 -0.246692 -2.202661
v 0.192213 -1.192486 -1.148123
v -1.807787 -1.192486 -1.148123
v -1.562216 1.180905 -0.276691
v -0.949504 1.121673 1.294354
v -0.358354 1.785990 0.917116
v 0.281334 0.938464 -1.319406
vt 1.000000 1.000000
vt 1.000000 0.000000
vt 1.000000 0.000000
vt 1.000000 1.000000
vt 0.000000 0.000000
vt 1.000000 0.000000
vt 1.000000 1.000000
vt 0.000000 1.000000
vt 0.000000 1.000000
vt 0.000000 0.000000
vt 0.000000 1.000000
vt 0.000000 1.000000
vt 1.000000 1.000000
vt 1.000000 1.000000
vt 0.000000 0.000000
vt 0.000000 1.000000
vn -0.7953 -0.6062 0.0012
vn -0.1413 0.9798 0.1413
vn -0.9993 -0.0386 0.0000
vn 0.6288 0.7666 -0.1304
vn 0.8551 0.4849 -0.1835
vn -0.0582 -0.5509 -0.8325
vn 0.0000 0.7444 0.6677
vn 0.0000 0.9796 -0.2009
vn 0.0827 -0.9965 0.0089
vn -0.7668 0.4644 0.4431
vn 0.2776 -0.9403 0.1966
vn 0.8899 -0.3780 -0.2555
vn 0.3151 0.1061 0.9431
vn -0.2687 -0.2210 -0.9375
usemtl None
s off
f 4/1/1 2/2/1 15/3/1 16/4/1
f 5/5/2 6/6/2 8/7/2 7/8/2
f 2/2/3 4/1/3 8/7/3 6/6/3
f 3/9/4 1/10/4 5/5/4 7/8/4
f 3/9/5 7/8/5 12/11/5 10/12/5
f 1/10/6 2/2/6 6/6/6 5/5/6
f 9/13/7 10/12/7 12/11/7 11/14/7
f 7/8/8 8/7/8 11/14/8 12/11/8
f 4/1/9 3/9/9 10/12/9 9/13/9
f 8/7/10 4/1/10 9/13/10 11/14/10
f 14/15/11 13/16/11 16/4/11 15/3/11
f 1/10/12 3/9/12 13/16/12 14/15/12
f 3/9/13 4/1/13 16/4/13 13/16/13
f 2/2/14 1/10/14 14/15/14 15/3/14
