# Blender v2.82 (sub 7) OBJ File: ''
# www.blender.org
mtllib 9.mtl
o Cylinder_Cylinder.001
v 0.120268 -1.276042 -1.264000
v 0.000000 1.000000 -1.000000
v 0.315358 -1.276042 -1.244785
v 0.195090 1.000000 -0.980785
v 0.502951 -1.276042 -1.187879
v 0.382683 1.000000 -0.923880
v 0.675838 -1.276042 -1.095469
v 0.555570 1.000000 -0.831470
v 0.827374 -1.276042 -0.971107
v 0.707107 1.000000 -0.707107
v 0.951737 -1.276042 -0.819570
v 0.831470 1.000000 -0.555570
v 0.923880 -1.000000 -0.382683
v 0.923880 1.000000 -0.382683
v 0.980785 -1.000000 -0.195090
v 1.890372 1.303051 0.258086
v 1.000000 -1.000000 -0.000000
v 1.970379 1.033697 0.129957
v 0.980785 -1.000000 0.195090
v 1.947060 1.038993 0.324527
v 0.923880 -1.000000 0.382683
v 1.867053 1.308347 0.452656
v 0.831470 -1.000000 0.555570
v 0.831470 1.000000 0.555570
v 0.707107 -1.000000 0.707107
v 0.707107 1.000000 0.707107
v 0.555570 -1.000000 0.831470
v 0.555570 1.000000 0.831470
v 0.382683 -1.000000 0.923880
v 0.382683 1.000000 0.923880
v 0.195090 -1.000000 0.980785
v 0.195090 1.000000 0.980785
v -0.000000 -1.000000 1.000000
v -0.052690 -0.909264 -1.542090
v -0.195091 -1.000000 0.980785
v -0.195091 1.000000 0.980785
v -0.382684 -1.000000 0.923879
v -0.382684 1.000000 0.923879
v -0.555571 -1.000000 0.831469
v -0.555571 1.000000 0.831469
v -0.707107 -1.000000 0.707106
v -0.707107 1.000000 0.707106
v -0.711202 -1.276042 0.291570
v -0.831470 1.000000 0.555570
v -0.803612 -1.276042 0.118683
v -0.923880 1.000000 0.382683
v -0.860518 -1.276042 -0.068910
v -0.980785 1.000000 0.195089
v -0.879732 -1.276042 -0.264001
v -1.000000 1.000000 -0.000001
v -0.860518 -1.276042 -0.459091
v -0.980785 1.000000 -0.195091
v -0.803612 -1.276042 -0.646684
v -0.923879 1.000000 -0.382684
v -0.711201 -1.276042 -0.819571
v -0.831469 1.000000 -0.555571
v -0.586838 -1.276042 -0.971107
v -0.707106 1.000000 -0.707108
v -0.435302 -1.276042 -1.095470
v -0.555569 1.000000 -0.831470
v -0.262414 -1.276042 -1.187880
v -0.382682 1.000000 -0.923880
v -0.074821 -1.276042 -1.244785
v -0.195089 1.000000 -0.980786
v -1.071216 1.000000 0.780682
v -1.071216 -1.000000 0.780682
v -1.222752 -1.000000 0.656319
v -1.222752 1.000000 0.656319
v -1.347115 -1.000000 0.504783
v -1.347115 1.000000 0.504783
v -1.439525 -1.000000 0.331896
v -1.439525 1.000000 0.331896
v -1.496430 -1.000000 0.144302
v -1.496430 1.000000 0.144302
v -1.515645 -1.000000 -0.050788
v -1.515645 1.000000 -0.050788
v -1.496430 -1.000000 -0.245878
v -1.496430 1.000000 -0.245878
v -1.439524 -1.000000 -0.433472
v -1.439524 1.000000 -0.433472
v -1.347114 -1.000000 -0.606358
v -1.347114 1.000000 -0.606358
v -1.222751 -1.000000 -0.757895
v -1.222751 1.000000 -0.757895
v -1.071214 -1.000000 -0.882257
v -1.071214 1.000000 -0.882257
v -0.898327 -1.000000 -0.974667
v -0.898327 1.000000 -0.974667
v 0.338609 1.000000 1.371376
v 0.338609 -1.000000 1.371376
v 0.151015 -1.000000 1.428282
v 0.151015 1.000000 1.428282
v -0.044075 -1.000000 1.447496
v -0.044075 1.000000 1.447496
v -0.239165 -1.000000 1.428282
v -0.239165 1.000000 1.428282
v -0.426759 -1.000000 1.371376
v -0.426759 1.000000 1.371376
v -0.599645 -1.000000 1.278966
v -0.599645 1.000000 1.278966
v -1.115290 1.000000 1.228179
v -1.115290 -1.000000 1.228179
v 1.291692 0.984285 -0.338329
v 1.293406 -1.014968 -0.283702
v 1.346348 -1.009767 -0.095024
v 1.344635 0.989486 -0.149651
v 1.361451 -1.004416 0.100354
v 1.359737 0.994837 0.045728
v 1.338132 -0.999119 0.294924
v 1.336418 1.000134 0.240298
v 1.277288 -0.994082 0.481209
v 1.275574 1.005172 0.426583
v 1.181258 -0.989496 0.652050
v 1.179544 1.009757 0.597424
v 1.053732 -0.985539 0.800882
v 1.052018 1.013714 0.746256
v 0.197525 1.309721 -0.985550
v 0.002435 1.309721 -1.004765
v 0.385118 1.309721 -0.928644
v 0.558005 1.309721 -0.836234
v 0.709541 1.309721 -0.711871
v 0.833904 1.309721 -0.560335
v 0.926314 1.309721 -0.387448
v 0.983220 1.309721 -0.199855
v 1.002435 1.309721 -0.004765
v 1.278009 1.314893 0.421819
v 0.926314 1.309721 0.377919
v 0.983220 1.309721 0.190326
v 0.833904 1.309721 0.550806
v 1.181979 1.319478 0.592660
v 0.709541 1.309721 0.702342
v 0.558005 1.309721 0.826705
v 0.385118 1.309721 0.919115
v 0.197525 1.309721 0.976021
v 0.002434 1.309721 0.995235
v -0.192656 1.309721 0.976021
v -0.380249 1.309721 0.919115
v -0.553136 1.309721 0.826705
v -0.704673 1.309721 0.702342
v -0.829035 1.309721 0.550805
v -0.921445 1.309721 0.377918
v -0.978351 1.309721 0.190325
v -0.997565 1.309721 -0.004766
v -0.978350 1.309721 -0.199856
v -0.921444 1.309721 -0.387449
v -0.829034 1.309721 -0.560336
v -0.704671 1.309721 -0.711872
v -0.553135 1.309721 -0.836235
v -0.380248 1.309721 -0.928645
v -0.192654 1.309721 -0.985550
v 1.347069 1.299207 -0.154415
v 1.294127 1.294007 -0.343093
v 1.362171 1.304559 0.040963
v 1.338853 1.309855 0.235534
v 1.983021 0.985647 -0.073042
v 1.930078 0.980446 -0.261720
v 1.913961 1.001332 0.503192
v 1.817930 1.005918 0.674033
v 1.875269 1.297700 0.062707
v 1.822327 1.292499 -0.125971
v 1.806209 1.313385 0.638941
v 1.710179 1.317971 0.809782
v 0.195090 1.434121 1.406252
v 0.197525 1.743842 1.401488
v 0.000000 1.434121 1.425467
v -0.195090 1.434121 1.406252
v -0.239165 1.434121 1.853748
v -0.044075 1.434121 1.872963
v 0.151016 1.434121 1.853748
v 0.002435 1.743842 1.420702
v -0.192656 1.743842 1.401487
v 0.142401 -0.909264 -1.522876
v 0.142401 1.090736 -1.522876
v -0.052690 1.090736 -1.542090
v -0.605824 1.400457 -1.378325
v -0.608259 1.090736 -1.373561
v -0.951017 1.090736 -1.516758
v -0.435372 1.090736 -1.465971
v -0.435372 -0.909264 -1.465971
v -0.951017 -0.909264 -1.516758
v -0.247779 -0.909264 -1.522876
v -0.247779 1.090736 -1.522876
v -1.123904 1.090736 -1.424348
v 0.144835 1.400457 -1.527640
v -0.050255 1.400457 -1.546855
v -0.432937 1.400457 -1.470735
v -1.427804 1.090736 -1.470415
v -1.375114 1.000000 -0.928325
v -1.375114 -1.000000 -0.928325
v -1.427804 -0.909264 -1.470415
vt 0.116663 0.449553
vt 0.116663 0.449553
vt 0.116663 0.449553
vt 0.116663 0.449553
vt 0.968750 0.500000
vt 0.968750 1.000000
vt 0.937500 1.000000
vt 0.937500 0.500000
vt 0.906250 1.000000
vt 0.906250 0.500000
vt 0.875000 1.000000
vt 0.875000 0.500000
vt 0.843750 1.000000
vt 0.843750 0.500000
vt 0.812500 1.000000
vt 0.812500 0.500000
vt 0.985388 0.296822
vt 0.971731 0.341844
vt 0.971731 0.341844
vt 0.985388 0.296822
vt 0.014612 0.296822
vt 0.010000 0.250000
vt 0.010000 0.250000
vt 0.014612 0.296822
vt 0.812500 1.000000
vt 0.812500 0.500000
vt 0.985388 0.203178
vt 0.990000 0.250000
vt 0.990000 0.250000
vt 0.985388 0.203178
vt 0.296822 0.014612
vt 0.296822 0.014612
vt 0.296822 0.014612
vt 0.296822 0.014612
vt 0.949553 0.116663
vt 0.971731 0.158156
vt 0.971731 0.158156
vt 0.949553 0.116663
vt 0.625000 0.500000
vt 0.625000 1.000000
vt 0.593750 1.000000
vt 0.593750 0.500000
vt 0.562500 1.000000
vt 0.562500 0.500000
vt 0.616663 0.050447
vt 0.658156 0.028269
vt 0.658156 0.028269
vt 0.616663 0.050447
vt 0.250000 0.010000
vt 0.203178 0.014612
vt 0.203178 0.014612
vt 0.250000 0.010000
vt 0.616663 0.050447
vt 0.616663 0.050447
vt 0.750000 0.010000
vt 0.796822 0.014612
vt 0.796822 0.014612
vt 0.750000 0.010000
vt 0.116663 0.050447
vt 0.116663 0.050447
vt 0.116663 0.050447
vt 0.116663 0.050447
vt 0.080295 0.419706
vt 0.116663 0.449553
vt 0.080295 0.419706
vt 0.014611 0.203179
vt 0.010000 0.250000
vt 0.014611 0.203179
vt 0.616663 0.449553
vt 0.580295 0.419706
vt 0.580295 0.419706
vt 0.616663 0.449553
vt 0.510000 0.250000
vt 0.514611 0.203179
vt 0.514611 0.203179
vt 0.510000 0.250000
vt 0.028269 0.341844
vt 0.028269 0.341844
vt 0.014612 0.296822
vt 0.080294 0.080294
vt 0.050447 0.116663
vt 0.050447 0.116663
vt 0.080294 0.080294
vt 0.528269 0.341844
vt 0.514612 0.296822
vt 0.514612 0.296822
vt 0.528269 0.341844
vt 0.550447 0.116663
vt 0.580294 0.080294
vt 0.580294 0.080294
vt 0.550447 0.116663
vt 0.050447 0.383337
vt 0.050447 0.383337
vt 0.028269 0.158156
vt 0.028269 0.158156
vt 0.062500 1.000000
vt 0.062500 0.500000
vt 0.062500 0.500000
vt 0.062500 1.000000
vt 0.485388 0.296822
vt 0.490000 0.250000
vt 0.490000 0.250000
vt 0.485388 0.296822
vt 0.062500 1.000000
vt 0.031250 1.000000
vt 0.031250 1.000000
vt 0.062500 1.000000
vt 0.968750 0.500000
vt 0.968750 1.000000
vt 0.750000 0.490000
vt 0.796822 0.485388
vt 0.841844 0.471731
vt 0.883337 0.449553
vt 0.919706 0.419706
vt 0.949553 0.383337
vt 0.919706 0.080294
vt 0.883337 0.050447
vt 0.841844 0.028269
vt 0.703178 0.014612
vt 0.528269 0.158156
vt 0.550447 0.383337
vt 0.658156 0.471731
vt 0.703179 0.485389
vt 0.406250 0.500000
vt 0.406250 1.000000
vt 0.375000 1.000000
vt 0.375000 0.500000
vt 0.343750 1.000000
vt 0.343750 0.500000
vt 0.312500 1.000000
vt 0.312500 0.500000
vt 0.281250 1.000000
vt 0.281250 0.500000
vt 0.250000 1.000000
vt 0.250000 0.500000
vt 0.218750 1.000000
vt 0.218750 0.500000
vt 0.187500 1.000000
vt 0.187500 0.500000
vt 0.156250 1.000000
vt 0.156250 0.500000
vt 0.125000 1.000000
vt 0.125000 0.500000
vt 0.093750 1.000000
vt 0.093750 0.500000
vt 0.062500 1.000000
vt 0.062500 0.500000
vt 0.528269 0.158156
vt 0.550447 0.383337
vt 0.203178 0.014612
vt 0.158156 0.028269
vt 0.158156 0.028269
vt 0.203178 0.014612
vt 0.658156 0.471731
vt 0.093750 1.000000
vt 0.562500 0.500000
vt 0.562500 1.000000
vt 0.531250 1.000000
vt 0.531250 0.500000
vt 0.500000 1.000000
vt 0.500000 0.500000
vt 0.468750 1.000000
vt 0.468750 0.500000
vt 0.437500 1.000000
vt 0.437500 0.500000
vt 0.406250 1.000000
vt 0.406250 0.500000
vt 0.406250 1.000000
vt 0.406250 0.500000
vt 0.703178 0.014612
vt 0.296822 0.014612
vt 0.296822 0.014612
vt 0.841844 0.028269
vt 0.341844 0.028269
vt 0.341844 0.028269
vt 0.781250 1.000000
vt 0.781250 0.500000
vt 0.750000 1.000000
vt 0.750000 0.500000
vt 0.718750 1.000000
vt 0.718750 0.500000
vt 0.687500 1.000000
vt 0.687500 0.500000
vt 0.656250 1.000000
vt 0.656250 0.500000
vt 0.625000 1.000000
vt 0.625000 0.500000
vt 0.919706 0.080294
vt 0.080295 0.419706
vt 0.449553 0.116663
vt 0.419706 0.080294
vt 0.419706 0.080294
vt 0.449553 0.116663
vt 0.116663 0.050447
vt 0.080294 0.080294
vt 0.968750 1.000000
vt 0.937500 1.000000
vt 0.490000 0.250000
vt 0.485388 0.203178
vt 0.485388 0.203178
vt 0.471731 0.158156
vt 0.449553 0.116663
vt 0.449553 0.116663
vt 0.471731 0.158156
vt 0.296822 0.485388
vt 0.250000 0.490000
vt 0.203179 0.485389
vt 0.158156 0.471731
vt 0.050447 0.383337
vt 0.028269 0.341844
vt 0.014611 0.203179
vt 0.028269 0.158156
vt 0.050447 0.116663
vt 0.158156 0.028269
vt 0.341844 0.028269
vt 0.383337 0.050447
vt 0.419706 0.080294
vt 0.485388 0.296822
vt 0.471731 0.341844
vt 0.449553 0.383337
vt 0.419706 0.419706
vt 0.383337 0.449553
vt 0.341844 0.471731
vt 0.471731 0.341844
vt 0.906250 1.000000
vt 0.658156 0.471731
vt 0.703179 0.485389
vt 0.781250 1.000000
vt 0.750000 1.000000
vt 0.531250 1.000000
vt 0.500000 1.000000
vt 0.875000 1.000000
vt 0.625000 1.000000
vt 0.593750 1.000000
vt 0.062500 1.000000
vt 0.031250 1.000000
vt 0.449553 0.116663
vt 0.471731 0.158156
vt 0.718750 1.000000
vt 0.843750 1.000000
vt 0.562500 1.000000
vt 0.158156 0.471731
vt 0.000000 1.000000
vt 0.000000 1.000000
vt 0.449553 0.116663
vt 0.812500 1.000000
vt 0.812500 1.000000
vt 0.750000 1.000000
vt 0.718750 1.000000
vt 0.687500 1.000000
vt 0.687500 1.000000
vt 0.656250 1.000000
vt 0.656250 1.000000
vt 0.812500 1.000000
vt 0.812500 1.000000
vt 0.781250 1.000000
vt 0.485388 0.203178
vt 0.471731 0.341844
vt 0.250000 0.010000
vt 0.250000 0.010000
vt 0.203178 0.014612
vt 0.203178 0.014612
vt 0.468750 1.000000
vt 1.000000 0.500000
vt 1.000000 1.000000
vt 0.062500 0.500000
vt 0.031250 0.500000
vt 0.000000 1.000000
vt 0.000000 0.500000
vt 0.158156 0.471731
vt 0.158156 0.471731
vt 0.116663 0.449553
vt 1.000000 1.000000
vt 0.968750 1.000000
vt 0.750000 0.490000
vt 0.658156 0.471731
vt 0.062500 1.000000
vt 0.000000 1.000000
vt 0.796822 0.485388
vt 0.296822 0.485388
vt 0.250000 0.490000
vt 0.062500 0.500000
vt 0.062500 1.000000
vt 0.658156 0.471731
vt 0.658156 0.471731
vn -0.9951 0.0093 0.0983
vn 0.2880 0.1253 -0.9494
vn 0.4676 0.1262 -0.8749
vn 0.6296 0.1223 -0.7672
vn 0.7680 0.1137 -0.6303
vn 0.9920 0.0354 -0.1210
vn -0.0406 -0.9988 0.0256
vn -0.9952 0.0063 -0.0980
vn 0.1903 -0.0133 -0.9816
vn -0.0084 -0.9999 0.0127
vn 0.9999 -0.0077 0.0079
vn 0.0171 -0.9996 0.0227
vn 0.6344 0.0000 0.7730
vn 0.4714 0.0000 0.8819
vn 0.0000 -1.0000 0.0000
vn 0.0702 0.6982 -0.7124
vn 0.0000 1.0000 0.0000
vn -0.4799 -0.6539 -0.5848
vn -0.3871 -0.9212 0.0381
vn -0.4314 -0.8926 -0.1309
vn -0.1452 -0.8762 0.4594
vn -0.0967 0.0000 -0.9953
vn 0.0146 0.9995 -0.0285
vn 0.0486 0.9859 0.1603
vn 0.9691 0.0423 -0.2430
vn 0.0876 -0.9875 0.1311
vn -0.6344 0.0000 0.7730
vn -0.7730 0.0000 0.6344
vn -0.8819 0.0000 0.4714
vn -0.9569 0.0000 0.2903
vn -0.9952 0.0000 0.0980
vn -0.9952 0.0000 -0.0980
vn -0.9569 0.0000 -0.2903
vn -0.8819 0.0000 -0.4714
vn -0.7730 0.0000 -0.6344
vn -0.6344 0.0000 -0.7730
vn -0.4714 0.0000 -0.8819
vn -0.3397 -0.9228 0.1816
vn -0.4536 -0.8576 -0.2424
vn -0.4092 -0.9116 -0.0403
vn -0.4370 -0.3752 -0.8175
vn -0.0837 -0.9841 -0.1566
vn -0.3643 -0.9247 0.1105
vn -0.4734 -0.7905 -0.3885
vn 0.2903 0.0000 0.9569
vn 0.0980 0.0000 0.9952
vn -0.0980 0.0000 0.9952
vn -0.2903 0.0000 0.9569
vn -0.4714 0.0000 0.8819
vn 0.9952 0.0000 0.0980
vn 0.9906 -0.0956 0.0976
vn 0.9628 -0.0066 -0.2700
vn 0.9970 -0.0013 -0.0770
vn 0.9929 0.0041 0.1189
vn 0.9506 0.0093 0.3102
vn 0.8718 0.0141 0.4897
vn 0.7595 0.0184 0.6503
vn 0.0262 -0.9990 0.0351
vn -0.6344 -0.0069 -0.7730
vn -0.0294 0.9989 -0.0378
vn 0.0053 -0.9999 0.0152
vn -0.1893 0.0133 0.9818
vn -0.6343 0.0169 0.7729
vn -0.0239 -0.9996 0.0158
vn 0.2902 -0.0170 -0.9568
vn 0.0086 0.9999 -0.0126
vn -0.0185 0.9996 -0.0235
vn 0.0389 0.9989 -0.0252
vn -0.0056 0.9999 -0.0152
vn 0.0236 0.9996 -0.0158
vn 0.4713 -0.0173 -0.8818
vn 0.7730 0.0037 0.6344
vn -0.7729 0.0158 0.6343
vn -0.2198 -0.6531 -0.7247
vn 0.0107 -0.9911 0.1328
vn 0.0702 -0.6982 0.7124
vn -0.9569 0.0031 -0.2903
vn 0.6343 -0.0169 -0.7729
vn 0.6344 0.0069 0.7730
vn -0.8818 0.0142 0.4713
vn -0.2903 -0.0124 -0.9569
vn 0.0113 0.9997 -0.0205
vn -0.2902 0.0170 0.9568
vn -0.8819 -0.0003 -0.4714
vn 0.0588 -0.9977 0.0342
vn -0.1198 0.0162 0.9927
vn 0.7729 -0.0158 -0.6343
vn 0.4714 0.0099 0.8819
vn 0.0837 0.9841 0.1566
vn -0.9569 0.0120 0.2903
vn -0.0980 -0.0145 -0.9951
vn -0.4713 0.0173 0.8818
vn -0.7730 -0.0037 -0.6344
vn -0.2381 -0.2387 0.9415
vn 0.8818 -0.0142 -0.4713
vn 0.2903 0.0124 0.9569
vn -0.9951 0.0093 0.0980
vn 0.1190 -0.0162 -0.9928
vn 0.9659 0.2349 0.1094
vn 0.9471 0.1876 0.2606
vn 0.8693 0.0886 0.4863
vn 0.8737 0.4133 -0.2566
vn 0.9436 0.3273 -0.0497
vn -0.0096 -0.9995 0.0303
vn 0.0134 0.9996 -0.0256
vn -0.0086 -0.9997 0.0220
vn 0.0123 0.9997 -0.0230
vn 0.2381 0.2387 -0.9415
vn 0.0160 0.9994 -0.0320
vn 0.0381 -0.9961 -0.0792
vn 0.0980 0.0145 0.9951
vn -0.0980 0.0161 0.9951
vn -0.0702 -0.6982 0.7124
vn -0.9999 0.0077 -0.0079
vn -0.9906 0.0956 -0.0976
vn -0.0702 0.6982 -0.7124
vn 0.0980 0.0000 -0.9952
vn -0.2903 0.0000 -0.9569
vn -0.0980 0.0000 -0.9952
vn -0.4714 -0.0099 -0.8819
vn 0.0980 -0.0161 -0.9951
vn -0.0765 -0.6251 -0.7768
vn -0.2670 -0.8710 -0.4124
vn 0.9951 -0.0093 -0.0983
vn -0.0164 0.9859 0.1666
vn 0.0161 0.9864 0.1635
vn 0.0800 -0.5780 -0.8121
vn -0.9953 0.0000 0.0967
vn -0.0159 -0.9864 -0.1636
vn 0.0159 0.9864 0.1636
vn 0.0967 0.0000 0.9953
usemtl None
s off
f 60/1/1 148/2/1 175/3/1 176/4/1
f 3/5/2 4/6/2 6/7/2 5/8/2
f 5/8/3 6/7/3 8/9/3 7/10/3
f 7/10/4 8/9/4 10/11/4 9/12/4
f 9/12/5 10/11/5 12/13/5 11/14/5
f 11/14/6 12/13/6 14/15/6 13/16/6
f 15/17/7 13/18/7 104/19/7 105/20/7
f 52/21/8 50/22/8 143/23/8 144/24/8
f 13/16/9 14/15/9 103/25/9 104/26/9
f 19/27/10 17/28/10 107/29/10 109/30/10
f 32/31/11 134/32/11 164/33/11 163/34/11
f 23/35/12 21/36/12 111/37/12 113/38/12
f 25/39/13 26/40/13 28/41/13 27/42/13
f 27/42/14 28/41/14 30/43/14 29/44/14
f 39/45/15 37/46/15 97/47/15 99/48/15
f 135/49/16 136/50/16 171/51/16 170/52/16
f 66/53/15 39/45/15 99/48/15 102/54/15
f 33/55/15 31/56/15 91/57/15 93/58/15
f 40/59/17 65/60/17 101/61/17 100/62/17
f 58/63/17 60/1/17 86/64/17 84/65/17
f 48/66/17 50/22/17 76/67/17 74/68/17
f 59/69/18 57/70/18 83/71/18 85/72/18
f 49/73/19 47/74/19 73/75/19 75/76/19
f 52/21/17 54/77/17 80/78/17 78/79/17
f 42/80/17 44/81/17 70/82/17 68/83/17
f 53/84/20 51/85/20 77/86/20 79/87/20
f 43/88/21 41/89/21 67/90/21 69/91/21
f 56/92/17 58/63/17 84/65/17 82/93/17
f 46/94/17 48/66/17 74/68/17 72/95/17
f 177/96/22 180/97/22 190/98/22 187/99/22
f 151/100/23 153/101/23 16/102/23 159/103/23
f 62/104/24 64/105/24 182/106/24 178/107/24
f 4/6/25 3/5/25 172/108/25 173/109/25
f 1/110/26 3/111/26 5/112/26 7/113/26 9/114/26 11/115/26 13/18/26 15/17/26 17/28/26 19/27/26 21/36/26 23/35/26 25/116/26 27/117/26 29/118/26 31/56/26 33/55/26 35/119/26 37/46/26 39/45/26 41/89/26 43/88/26 45/120/26 47/74/26 49/73/26 51/85/26 53/84/26 55/121/26 57/70/26 59/69/26 61/122/26 63/123/26
f 66/124/27 65/125/27 68/126/27 67/127/27
f 67/127/28 68/126/28 70/128/28 69/129/28
f 69/129/29 70/128/29 72/130/29 71/131/29
f 71/131/30 72/130/30 74/132/30 73/133/30
f 73/133/31 74/132/31 76/134/31 75/135/31
f 75/135/32 76/134/32 78/136/32 77/137/32
f 77/137/33 78/136/33 80/138/33 79/139/33
f 79/139/34 80/138/34 82/140/34 81/141/34
f 81/141/35 82/140/35 84/142/35 83/143/35
f 83/143/36 84/142/36 86/144/36 85/145/36
f 85/145/37 86/144/37 88/146/37 87/147/37
f 45/120/38 43/88/38 69/91/38 71/148/38
f 55/121/39 53/84/39 79/87/39 81/149/39
f 36/150/17 38/151/17 98/152/17 96/153/17
f 44/81/17 46/94/17 72/95/17 70/82/17
f 54/77/17 56/92/17 82/93/17 80/78/17
f 41/89/15 39/45/15 66/53/15 67/90/15
f 51/85/40 49/73/40 75/76/40 77/86/40
f 61/122/41 59/69/41 85/72/41 87/154/41
f 40/59/17 42/80/17 68/83/17 65/60/17
f 50/22/17 52/21/17 78/79/17 76/67/17
f 88/146/42 86/144/42 183/155/42 177/96/42
f 47/74/43 45/120/43 71/148/43 73/75/43
f 57/70/44 55/121/44 81/149/44 83/71/44
f 90/156/45 89/157/45 92/158/45 91/159/45
f 91/159/46 92/158/46 94/160/46 93/161/46
f 93/161/47 94/160/47 96/162/47 95/163/47
f 95/163/48 96/162/48 98/164/48 97/165/48
f 97/165/49 98/164/49 100/166/49 99/167/49
f 99/167/47 100/166/47 101/168/47 102/169/47
f 38/151/17 40/59/17 100/62/17 98/152/17
f 35/119/15 33/55/15 93/58/15 95/170/15
f 29/44/50 30/43/50 89/157/50 90/156/50
f 92/171/51 32/31/51 163/34/51 169/172/51
f 31/56/15 29/118/15 90/173/15 91/57/15
f 30/174/17 32/31/17 92/171/17 89/175/17
f 65/125/32 66/124/32 102/169/32 101/168/32
f 37/46/15 35/119/15 95/170/15 97/47/15
f 104/26/52 103/25/52 106/176/52 105/177/52
f 105/177/53 106/176/53 108/178/53 107/179/53
f 107/179/54 108/178/54 110/180/54 109/181/54
f 109/181/55 110/180/55 112/182/55 111/183/55
f 111/183/56 112/182/56 114/184/56 113/185/56
f 113/185/57 114/184/57 116/186/57 115/187/57
f 25/116/58 23/35/58 113/38/58 115/188/58
f 60/1/59 58/63/59 147/189/59 148/2/59
f 24/190/60 26/191/60 116/192/60 114/193/60
f 21/36/61 19/27/61 109/30/61 111/37/61
f 26/40/62 25/39/62 115/187/62 116/186/62
f 42/80/63 40/59/63 138/194/63 139/195/63
f 17/28/64 15/17/64 105/20/64 107/29/64
f 6/7/65 4/6/65 117/196/65 119/197/65
f 125/198/66 128/199/66 154/200/66 153/101/66
f 127/201/67 129/202/67 130/203/67 126/204/67
f 117/205/17 118/206/17 150/207/17 149/208/17 148/2/17 147/189/17 146/209/17 145/210/17 144/24/17 143/23/17 142/211/17 141/212/17 140/213/17 139/195/17 138/194/17 137/214/17 136/50/17 135/49/17 134/32/17 133/215/17 132/216/17 131/217/17 129/202/17 127/201/17 128/199/17 125/198/17 124/218/17 123/219/17 122/220/17 121/221/17 120/222/17 119/223/17
f 123/219/68 124/218/68 151/100/68 152/224/68
f 128/199/69 127/201/69 126/204/69 154/200/69
f 124/218/70 125/198/70 153/101/70 151/100/70
f 8/9/71 6/7/71 119/197/71 120/225/71
f 26/191/72 24/190/72 129/202/72 131/217/72
f 44/81/73 42/80/73 139/195/73 140/213/73
f 63/123/74 61/122/74 179/226/74 181/227/74
f 108/178/75 106/176/75 155/228/75 18/229/75
f 94/160/76 92/158/76 169/230/76 168/231/76
f 54/77/77 52/21/77 144/24/77 145/210/77
f 10/11/78 8/9/78 120/225/78 121/232/78
f 28/41/79 26/40/79 131/233/79 132/234/79
f 46/94/80 44/81/80 140/213/80 141/212/80
f 64/105/81 62/104/81 149/235/81 150/236/81
f 126/204/82 130/203/82 162/237/82 161/238/82
f 38/151/83 36/150/83 136/50/83 137/214/83
f 56/92/84 54/77/84 145/210/84 146/209/84
f 110/180/85 108/178/85 18/229/85 20/239/85
f 24/190/86 114/193/86 130/203/86 129/202/86
f 12/13/87 10/11/87 121/232/87 122/240/87
f 30/43/88 28/41/88 132/234/88 133/241/88
f 148/2/89 149/208/89 186/242/89 175/3/89
f 48/66/90 46/94/90 141/212/90 142/211/90
f 2/243/91 64/105/91 150/236/91 118/244/91
f 40/59/92 38/151/92 137/214/92 138/194/92
f 58/63/93 56/92/93 146/209/93 147/189/93
f 130/203/94 114/193/94 158/245/94 162/237/94
f 14/15/95 12/13/95 122/240/95 123/246/95
f 32/31/96 30/174/96 133/215/96 134/32/96
f 50/22/97 48/66/97 142/211/97 143/23/97
f 103/25/98 14/15/98 123/246/98 152/247/98
f 20/239/99 18/229/99 16/248/99 22/249/99
f 157/250/100 20/239/100 22/249/100 161/251/100
f 158/252/101 157/250/101 161/251/101 162/253/101
f 155/228/102 156/254/102 160/255/102 159/256/102
f 18/229/103 155/228/103 159/256/103 16/248/103
f 106/176/104 103/25/104 156/254/104 155/228/104
f 153/101/105 154/200/105 22/257/105 16/102/105
f 114/184/106 112/182/106 157/250/106 158/252/106
f 154/200/107 126/204/107 161/238/107 22/257/107
f 103/25/108 152/247/108 160/255/108 156/254/108
f 152/224/109 151/100/109 159/103/109 160/258/109
f 112/182/110 110/180/110 20/239/110 157/250/110
f 165/259/111 163/34/111 164/33/111 170/52/111
f 163/34/17 165/259/17 168/260/17 169/172/17
f 165/259/17 166/261/17 167/262/17 168/260/17
f 166/261/112 165/259/112 170/52/112 171/51/112
f 96/162/113 94/160/113 168/231/113 167/263/113
f 136/50/114 36/150/114 166/261/114 171/51/114
f 36/150/115 96/153/115 167/262/115 166/261/115
f 134/32/116 135/49/116 170/52/116 164/33/116
f 34/264/117 174/265/117 173/109/117 172/108/117
f 178/107/117 179/266/117 180/97/117 177/96/117
f 179/266/118 178/107/118 182/106/118 181/267/118
f 181/267/119 182/106/119 174/268/119 34/269/119
f 176/4/17 178/270/17 177/271/17 183/272/17
f 178/270/120 176/4/120 175/3/120 186/242/120
f 173/109/121 174/265/121 185/273/121 184/274/121
f 1/110/122 63/123/122 181/227/122 34/275/122
f 61/122/123 87/154/123 180/276/123 179/226/123
f 117/196/124 4/6/124 173/109/124 184/274/124
f 149/235/124 62/104/124 178/107/124 186/277/124
f 86/64/125 60/1/125 176/4/125 183/272/125
f 2/243/1 118/244/1 185/278/1 174/268/1
f 64/105/126 2/243/126 174/268/126 182/106/126
f 3/111/127 1/110/127 34/275/127 172/279/127
f 118/206/125 117/205/125 184/280/125 185/281/125
f 189/282/128 188/283/128 187/99/128 190/98/128
f 180/276/129 87/154/129 189/284/129 190/285/129
f 88/146/130 177/96/130 187/99/130 188/283/130
f 87/147/131 88/146/131 188/283/131 189/282/131
